<?xml version="1.0" encoding="UTF-8"?>
<svg width="120px" height="120px" viewBox="0 0 120 120" version="1.1" xmlns="http://www.w3.org/2000/svg" xmlns:xlink="http://www.w3.org/1999/xlink">
    <!-- Generator: Sketch 59.1 (86144) - https://sketch.com -->
    <title>Artboard</title>
    <desc>Created with Sketch.</desc>
    <defs>
        <linearGradient x1="49.9979432%" y1="55.051117%" x2="49.9979432%" y2="93.4817288%" id="linearGradient-1">
            <stop stop-color="#FFDD00" offset="0%"></stop>
            <stop stop-color="#FFBC24" offset="100%"></stop>
        </linearGradient>
        <linearGradient x1="51.1898069%" y1="100.457415%" x2="51.1898069%" y2="-0.927858577%" id="linearGradient-2">
            <stop stop-color="#FFDD00" offset="0%"></stop>
            <stop stop-color="#FFC33C" offset="100%"></stop>
        </linearGradient>
        <linearGradient x1="58.9743467%" y1="36.5523391%" x2="44.5958618%" y2="65.8539404%" id="linearGradient-3">
            <stop stop-color="#FFDD00" offset="0%"></stop>
            <stop stop-color="#FFBC24" offset="100%"></stop>
        </linearGradient>
        <linearGradient x1="49.9999732%" y1="102.302394%" x2="49.9999732%" y2="-1.59811617%" id="linearGradient-4">
            <stop stop-color="#FFDD00" offset="0%"></stop>
            <stop stop-color="#FFC33C" offset="100%"></stop>
        </linearGradient>
        <linearGradient x1="-35.6310392%" y1="67.1367991%" x2="101.802421%" y2="46.5225661%" id="linearGradient-5">
            <stop stop-color="#FFDD00" offset="0%"></stop>
            <stop stop-color="#FFBC24" offset="100%"></stop>
        </linearGradient>
        <linearGradient x1="50.0274765%" y1="102.887483%" x2="50.0274765%" y2="-18.7987122%" id="linearGradient-6">
            <stop stop-color="#FFDD00" offset="0%"></stop>
            <stop stop-color="#FFC33C" offset="100%"></stop>
        </linearGradient>
        <linearGradient x1="57.4419276%" y1="-16.3031918%" x2="42.2764365%" y2="83.1060802%" id="linearGradient-7">
            <stop stop-color="#FFDD00" offset="0%"></stop>
            <stop stop-color="#FFBC24" offset="100%"></stop>
        </linearGradient>
        <linearGradient x1="50.2448026%" y1="116.226015%" x2="50.2448026%" y2="-2.21999228%" id="linearGradient-8">
            <stop stop-color="#FFDD00" offset="0%"></stop>
            <stop stop-color="#FFC33C" offset="100%"></stop>
        </linearGradient>
        <linearGradient x1="74.3429454%" y1="-28.0632118%" x2="36.3761726%" y2="113.204546%" id="linearGradient-9">
            <stop stop-color="#FFDD00" offset="0%"></stop>
            <stop stop-color="#FFBC24" offset="100%"></stop>
        </linearGradient>
        <linearGradient x1="50.0075682%" y1="101.815771%" x2="50.0075682%" y2="-2.44834711%" id="linearGradient-10">
            <stop stop-color="#FFDD00" offset="0%"></stop>
            <stop stop-color="#FFC33C" offset="100%"></stop>
        </linearGradient>
        <linearGradient x1="-15.7799389%" y1="89.5634748%" x2="81.864243%" y2="19.8008363%" id="linearGradient-11">
            <stop stop-color="#FFDD00" offset="0%"></stop>
            <stop stop-color="#FFBC24" offset="100%"></stop>
        </linearGradient>
        <linearGradient x1="51.124703%" y1="107.963994%" x2="51.124703%" y2="-2.31171005%" id="linearGradient-12">
            <stop stop-color="#FFDD00" offset="0%"></stop>
            <stop stop-color="#FFC33C" offset="100%"></stop>
        </linearGradient>
        <linearGradient x1="19.32092%" y1="137.667868%" x2="65.8065331%" y2="13.7596768%" id="linearGradient-13">
            <stop stop-color="#FFDD00" offset="0%"></stop>
            <stop stop-color="#FFBC24" offset="100%"></stop>
        </linearGradient>
        <linearGradient x1="48.3423057%" y1="102.823123%" x2="48.3423057%" y2="-14.9921822%" id="linearGradient-14">
            <stop stop-color="#FFDD00" offset="0%"></stop>
            <stop stop-color="#FFC33C" offset="100%"></stop>
        </linearGradient>
        <linearGradient x1="-32.0105477%" y1="47.737395%" x2="96.3358787%" y2="52.4815771%" id="linearGradient-15">
            <stop stop-color="#FFDD00" offset="0%"></stop>
            <stop stop-color="#FFBC24" offset="100%"></stop>
        </linearGradient>
        <linearGradient x1="50.1139311%" y1="104.485665%" x2="50.1139311%" y2="-2.2006743%" id="linearGradient-16">
            <stop stop-color="#FFDD00" offset="0%"></stop>
            <stop stop-color="#FFC33C" offset="100%"></stop>
        </linearGradient>
        <linearGradient x1="-2.83412524%" y1="51.9606718%" x2="100.605906%" y2="46.0152358%" id="linearGradient-17">
            <stop stop-color="#FFDD00" offset="0%"></stop>
            <stop stop-color="#FFBC24" offset="100%"></stop>
        </linearGradient>
        <linearGradient x1="50.75212%" y1="111.978316%" x2="50.75212%" y2="-7.45552724%" id="linearGradient-18">
            <stop stop-color="#FFDD00" offset="0%"></stop>
            <stop stop-color="#FFC33C" offset="100%"></stop>
        </linearGradient>
        <linearGradient x1="-33.0410956%" y1="46.8588657%" x2="92.7929591%" y2="50.5438561%" id="linearGradient-19">
            <stop stop-color="#FFDD00" offset="0%"></stop>
            <stop stop-color="#FFBC24" offset="100%"></stop>
        </linearGradient>
        <linearGradient x1="47.944756%" y1="109.661517%" x2="47.944756%" y2="-3.02361117%" id="linearGradient-20">
            <stop stop-color="#FFDD00" offset="0%"></stop>
            <stop stop-color="#FFC33C" offset="100%"></stop>
        </linearGradient>
        <linearGradient x1="68.954097%" y1="23.6470061%" x2="39.7893174%" y2="93.1949243%" id="linearGradient-21">
            <stop stop-color="#FFDD00" offset="0%"></stop>
            <stop stop-color="#FFBC24" offset="100%"></stop>
        </linearGradient>
        <linearGradient x1="50.2092972%" y1="100.614248%" x2="50.2092972%" y2="-1.77817866%" id="linearGradient-22">
            <stop stop-color="#FFDD00" offset="0%"></stop>
            <stop stop-color="#FFC33C" offset="100%"></stop>
        </linearGradient>
        <linearGradient x1="56.9027717%" y1="117.348666%" x2="46.2451917%" y2="4.66170801%" id="linearGradient-23">
            <stop stop-color="#FFDD00" offset="0%"></stop>
            <stop stop-color="#FFBC24" offset="100%"></stop>
        </linearGradient>
        <linearGradient x1="49.9876421%" y1="101.703983%" x2="49.9876421%" y2="-1.97496538%" id="linearGradient-24">
            <stop stop-color="#FFDD00" offset="0%"></stop>
            <stop stop-color="#FFC33C" offset="100%"></stop>
        </linearGradient>
    </defs>
    <g id="Welcome" stroke="none" stroke-width="1" fill="none" fill-rule="evenodd">
        <g id="Artboard">
            <rect id="Rectangle" x="0" y="0" width="120" height="120"></rect>
            <g id="Group" transform="translate(24.000000, 3.000000)" fill-rule="nonzero">
                <path d="M51,112.643177 C51,112.643177 10.8156035,106.714811 10.8156035,58 C10.8156035,58 -8.42297936,72.8260246 6.96788693,96.9687825 C15.9527693,111.069094 30.9052228,116.879914 51,112.643177 Z" id="Path" stroke="url(#linearGradient-2)" fill="url(#linearGradient-1)"></path>
                <path d="M60.592175,29 C59.0267902,36.0255102 49.1622988,43.2142858 22.5712848,51.7908164 C0.681558111,58.8520408 -0.914621262,73.3520408 0.296627396,81 C2.19561894,74.2755101 19.9383588,73.2959185 33.7086137,68.8571428 C64.4158202,58.9489795 66.8896416,45.1020407 64.1694646,37.3469387 L60.592175,29 Z" id="Path" stroke="url(#linearGradient-4)" fill="url(#linearGradient-3)"></path>
                <path d="M39.6703859,31 C39.6703859,31.5206115 39.6234322,32.0463774 39.4982228,32.5772981 C38.637407,36.3040512 33.7229321,37.7834125 31.1039656,37.7782578 C28.5267358,37.7731034 25.725172,37.0823911 25,34.8195354 C25.8242964,38.159696 28.1928436,39.0926731 31.4274236,39.8246217 C35.1993615,40.6751256 38.9556479,38.3504151 39.8216808,34.6236619 C40.1138364,33.3762563 40.0355802,32.1340051 39.6703859,31 Z" id="Path" stroke="url(#linearGradient-6)" fill="url(#linearGradient-5)"></path>
                <path d="M51,23.8362406 C50.2401182,23.0224513 49.2415559,22.4207405 48.0822493,22.1494776 C44.9501732,21.4244653 41.8327102,23.4071517 41.1166679,26.5735315 C40.722114,28.3194792 41.4819956,31.5647719 41.1556362,33 C42.7046256,30.0309026 46.6793909,24.0335227 51,23.8362406 Z" id="Path" stroke="url(#linearGradient-8)" fill="url(#linearGradient-7)"></path>
                <path d="M51.0275928,15 C55.1674078,14.7623967 58.030159,12.3708678 58.8017183,9.06508265 C59.7488739,5.01549587 57.2160308,0.97623967 53.0549314,0.0206611572 C53.0176838,0.0103305785 52.980436,0.0103305785 52.9378672,0 C53.4167662,0.924586776 53.7307109,1.93698347 53.8477752,2.98553718 C53.9541972,3.93595041 53.895665,4.91735537 53.6562155,5.89876034 C53.0230048,8.48140496 51.2617211,10.5216942 49.0002541,11.6322314 C48.9842907,11.6890496 49.7239236,12.4018595 50.234749,13.2283058 C50.7455744,14.0599174 51.0275928,15 51.0275928,15 Z" id="Path" stroke="url(#linearGradient-10)" fill="url(#linearGradient-9)"></path>
                <path d="M20.3187984,21.9338646 C19.4221575,21.1050763 18.306451,20.4885387 17.0277188,20.190377 C16.8952605,20.1600555 16.7577077,20.1398412 16.6252493,20.1145732 C16.1056052,20.0236086 15.5910556,19.9882335 15.0866951,20.0033943 C11.8618447,20.1095196 8.9783292,22.3280445 8.19886299,25.5926617 C7.74035345,27.5079712 8.09697198,29.4283342 9.03946381,31 C9.05474745,30.4491589 9.12607116,29.8882107 9.25852946,29.3272626 C10.2468722,25.1833212 14.2868507,22.5251344 18.5458948,23.0456537 C18.8668515,23.0860824 19.1878082,23.1416718 19.5138594,23.2174758 C20.4155948,23.4297264 21.2460065,23.7733703 22,24.2231396 C21.592436,23.3589761 21.0269409,22.5807238 20.3187984,21.9338646 Z" id="Path" stroke="url(#linearGradient-12)" fill="url(#linearGradient-11)"></path>
                <path d="M20,22.3326031 C20.9294058,23.3330223 21.3204672,24.5924333 22.3260538,24.8311119 C22.6409345,24.9072861 22.9558151,24.9479121 23.265617,24.9733036 C23.3925852,24.9834601 23.5195532,24.9936167 23.6414423,24.9986948 C26.3687152,25.0545559 28.8674453,23.3127092 29.7155917,20.6567738 C29.7663789,20.5044257 29.8120873,20.3520776 29.8527171,20.1946512 C29.9339767,19.8594854 29.9746065,19.5293978 30,19.1993103 C28.9537835,18.254752 28.1970542,17.1629239 27.8212291,16 C27.7958354,16.3808703 27.750127,16.7617405 27.6587099,17.1426108 C27.6536313,17.1578456 27.6485525,17.1730804 27.6434739,17.1883153 C26.9273744,20.1032424 24.4337228,22.1193156 21.5947181,22.3579943 L20,22.3326031 Z" id="Path" stroke="url(#linearGradient-14)" fill="url(#linearGradient-13)"></path>
                <path d="M29.0638493,14.5792872 C29.0537614,14.5690401 29.0234976,14.5690401 29.0234976,14.5792872 C28.9528822,15.3273251 29.0436735,16.0599923 29.2656073,16.7721653 C29.6388599,17.9454576 30.3904089,19.0470202 31.429463,20 C31.4345071,19.9385174 31.444595,19.8719113 31.444595,19.8104288 C31.2630128,19.2160973 31.1873533,18.5961481 31.2529249,17.9761989 C31.2731007,17.7968748 31.3033642,17.6175506 31.3437159,17.4382264 C31.984298,14.6868817 35.1317245,13.088335 38.3648983,13.8671142 C38.7129309,13.9490909 39.5350953,14.0976738 39.994095,14.2360095 C41.1491601,14.7842291 42.4454559,15.1992364 43.8426309,15.4400431 C44.2209273,15.5066492 44.6093118,15.5578847 45.00274,15.5988731 C47.1665959,15.814062 49.2245286,15.5835024 51,15.0147887 C50.9798242,14.9328119 50.9596483,14.8508352 50.9394725,14.7688584 C50.6166595,13.6211839 49.9306819,12.5349919 48.967287,11.5871357 C47.7012549,10.3421138 45.9560472,9.32765145 43.9132463,8.69745516 C42.9397634,8.39516589 41.8956652,8.18510046 40.8061712,8.07750596 C39.7469413,7.97503503 38.7179748,7.97503503 37.7293602,8.07238241 L36.039636,8.32855977 C35.6159438,8.42078362 35.2073837,8.53350165 34.8089115,8.66159033 C34.8089115,8.65646678 29.4673656,10.1627896 29.0638493,14.5792872 Z" id="Path" stroke="url(#linearGradient-16)" fill="url(#linearGradient-15)"></path>
                <path d="M31,34 C31,34 33.8127855,29.6136991 39,31.448694 C39,31.4442722 35.1174167,32.9874366 31,34 Z" id="Path" stroke="url(#linearGradient-18)" fill="url(#linearGradient-17)"></path>
                <path d="M68,79 C67.6416153,77.0242495 67.0157039,75.1455878 66.167695,73.3882865 C63.729669,71.7669089 60.7414471,70.8736949 57.5513179,71.0144732 C54.7246214,71.1406883 52.1351654,72.0678832 50,73.5484825 C51.0347729,73.3300334 52.0998318,73.1892551 53.1951765,73.1407108 C59.0100954,72.878572 64.3353897,75.1795687 68,79 Z" id="Path" stroke="url(#linearGradient-20)" fill="url(#linearGradient-19)"></path>
                <path d="M51.9706607,110.431547 C47.4093292,112.391636 33.356328,114.243971 29,113.084338 C37.3743997,114.716035 41.0798411,115.747391 50.9661427,114.331201 C64.1376284,112.448078 75.6998352,102.072946 74.9669468,88.7782052 C74.8131942,85.9458249 74.1725578,83.2571161 73.127039,80.7787833 C71.9175174,77.9002232 69.26272,75.5604307 67.0999313,73.3950965 C66.9205531,73.2616874 66.7411748,73.1282781 66.5566716,73 C67.417687,74.8574668 68.0531984,76.8432116 68.4170798,78.931579 C68.5913331,79.9321481 68.7092101,80.9532416 68.7553359,81.9948597 C69.0167156,87.4338507 61.774961,107.029612 51.9706607,110.431547" id="Path" stroke="url(#linearGradient-22)" fill="url(#linearGradient-21)"></path>
                <path d="M51.1673189,73 C51.1673189,73 53.8259258,75.8079118 53.9977567,78.8784343 C54.1027646,80.7621593 50.4752217,86.4385856 52.7806207,87.7162865 C54.9571463,88.9232847 49.1196663,86.0850714 47.6018262,82.8680934 C46.0839859,79.6511151 47.4968183,74.5504117 51.1673189,73 Z" id="Path" stroke="url(#linearGradient-24)" fill="url(#linearGradient-23)"></path>
            </g>
        </g>
    </g>
</svg>