<?xml version="1.0" encoding="UTF-8"?>
<svg width="50px" height="50px" viewBox="0 0 50 50" version="1.1" xmlns="http://www.w3.org/2000/svg" xmlns:xlink="http://www.w3.org/1999/xlink">
    <!-- Generator: Sketch 59.1 (86144) - https://sketch.com -->
    <title>Group 46</title>
    <desc>Created with Sketch.</desc>
    <g id="Welcome" stroke="none" stroke-width="1" fill="none" fill-rule="evenodd">
        <g id="Group-46">
            <rect id="Rectangle" fill="#FFDD00" x="0" y="0" width="50" height="50" rx="25"></rect>
            <path d="M28.7917925,30.7840753 C28.8064459,23.0933846 28.8290221,21.0935129 28.9011885,21.0935129 C28.9512008,21.0935129 31.1702919,23.2697987 33.8325018,25.9297035 C36.4947117,28.5896084 38.6975436,30.7658941 38.7276839,30.7658941 C38.7578242,30.7658941 38.7824846,28.8433033 38.7824846,26.4934703 L38.7824846,22.2210464 L32.2493867,15.6938567 C28.6561833,12.1039022 25.6833947,9.16666667 25.6431907,9.16666667 C25.511219,9.16666667 12.658567,22.0686802 12.5800035,22.2800232 C12.4700637,22.5757719 12.4749976,30.6667399 12.5851595,30.7347592 C12.6333257,30.7644993 14.6270499,28.8263308 17.4807507,25.9755848 C20.1286326,23.3304438 22.3195583,21.1662376 22.3494736,21.1662376 C22.379389,21.1662376 22.4038652,25.4555081 22.4038652,30.6979504 C22.4038652,37.1631132 22.4282424,40.2751699 22.4796371,40.3711104 C22.5531276,40.5082975 22.6490386,40.5119861 25.6643686,40.4935977 L28.7733283,40.4746376 L28.7917925,30.7840753 Z" id="path1310-path" fill="#000000" fill-rule="nonzero"></path>
        </g>
    </g>
</svg>