<?xml version="1.0" encoding="UTF-8"?>
<svg width="32px" height="32px" viewBox="0 0 32 32" version="1.1" xmlns="http://www.w3.org/2000/svg" xmlns:xlink="http://www.w3.org/1999/xlink">
    <!-- Generator: Sketch 59.1 (86144) - https://sketch.com -->
    <title>Combined Shape</title>
    <desc>Created with Sketch.</desc>
    <g id="Welcome" stroke="none" stroke-width="1" fill="none" fill-rule="evenodd">
        <path d="M16,3.44613227e-13 C24.8227764,3.44613227e-13 32,7.17722357 32,16 C32,24.8227764 24.8227764,32 16,32 C7.17722357,32 3.48165941e-13,24.8227764 3.48165941e-13,16 C3.48165941e-13,7.17722357 7.17722357,3.44613227e-13 16,3.44613227e-13 Z M16,1.75664342 C8.1475068,1.75664342 1.75664342,8.1475068 1.75664342,16 C1.75664342,23.8524932 8.1475068,30.2433566 16,30.2433566 C23.8543767,30.2433566 30.2433566,23.8524932 30.2433566,16 C30.2433566,8.1475068 23.8543767,1.75664342 16,1.75664342 Z M15.6862596,5.60454141 C17.0811637,5.60588462 18.3908388,6.14698245 19.3777964,7.13394004 C20.3642774,8.12042102 20.9071084,9.43156935 20.9077583,10.8249136 C20.9060252,12.2186478 20.3629342,13.5308361 19.3770165,14.5167538 C18.872532,15.0212382 18.2833818,15.4083866 17.6412831,15.6677999 L17.6412831,15.6677999 L17.6412831,25.3946487 C17.6424964,25.5060053 17.6029799,25.6141556 17.532093,25.6968281 L17.532093,25.6968281 L16.0489702,27.4790972 C15.8834518,27.6756395 15.5907182,27.7052768 15.3903629,27.5443514 L15.3903629,27.5443514 L13.9051603,26.3560419 C13.8917715,26.3448196 13.8789027,26.3329907 13.8668571,26.3209451 C13.7829713,26.2370593 13.7346157,26.1262227 13.7288529,26.0044237 C13.7257332,25.8692359 13.7780318,25.7354779 13.8798559,25.6438795 L13.8798559,25.6438795 L14.7811079,24.8010356 L13.8797259,23.9589283 C13.7717057,23.8573208 13.7295028,23.7446643 13.7285496,23.6126828 C13.7298061,23.4828246 13.7841846,23.3576459 13.879076,23.2682139 L13.879076,23.2682139 L14.7823645,22.4276665 L13.8785994,21.5836093 C13.783188,21.4956506 13.7284629,21.3696919 13.7296761,21.239877 C13.7285063,21.1075923 13.7848778,20.9847534 13.8796393,20.8953648 L13.8796393,20.8953648 L14.7809346,20.0509176 L13.8796826,19.2107601 C13.7820181,19.1192484 13.7291995,18.9967561 13.7283763,18.8646447 L13.7283763,18.8646447 L13.7295895,15.6679732 C13.0861476,15.4077367 12.4973874,15.0226248 11.9927729,14.5180103 C11.0063353,13.5315727 10.4651941,12.2213342 10.4653674,10.8250003 C10.4643708,7.94502351 12.8062395,5.60376148 15.6862596,5.60454141 Z M16.6330941,15.9571538 C16.4004584,15.9994866 16.1649197,16.0254843 15.9254813,16.0344968 L15.9254813,16.0344968 L15.9242681,24.3117164 C15.9242681,24.4092076 15.9653011,24.4990295 16.028822,24.5625505 C16.0923429,24.6260714 16.1820782,24.6671044 16.279656,24.6671044 C16.4747251,24.6671044 16.6339174,24.5079121 16.6339174,24.3127563 L16.6339174,24.3127563 Z M15.6856096,6.96608186 C14.8653837,6.96564857 14.2017069,7.62932534 14.2017502,8.44994128 C14.2013169,9.26982062 14.8651237,9.93362737 15.6858696,9.93406067 C16.5054023,9.93354072 17.1697723,9.26969063 17.169859,8.45007126 C17.1692091,7.62910869 16.505229,6.96590854 15.6856096,6.96608186 Z" id="Combined-Shape" fill="#FFDD00"></path>
    </g>
</svg>