<?xml version="1.0" encoding="UTF-8"?>
<svg width="32px" height="33px" viewBox="0 0 32 33" version="1.1" xmlns="http://www.w3.org/2000/svg" xmlns:xlink="http://www.w3.org/1999/xlink">
    <!-- Generator: Sketch 59.1 (86144) - https://sketch.com -->
    <title>Combined Shape</title>
    <desc>Created with Sketch.</desc>
    <defs>
        <linearGradient x1="50%" y1="100%" x2="50%" y2="0.122337342%" id="linearGradient-1">
            <stop stop-color="#CCCCCC" offset="0%"></stop>
            <stop stop-color="#F0F0F0" offset="64%"></stop>
            <stop stop-color="#FFFFFF" offset="100%"></stop>
            <stop stop-color="#FBFBFA" offset="100%"></stop>
            <stop stop-color="#F0EEEB" offset="100%"></stop>
        </linearGradient>
    </defs>
    <g id="Welcome" stroke="none" stroke-width="1" fill="none" fill-rule="evenodd" opacity="0.6">
        <path d="M16,0.5 C24.8227764,0.5 32,7.67722357 32,16.5 C32,25.3227764 24.8227764,32.5 16,32.5 C7.17722357,32.5 3.48165941e-13,25.3227764 3.48165941e-13,16.5 C3.48165941e-13,7.67722357 7.17722357,0.5 16,0.5 Z M16,2.25664342 C8.1475068,2.25664342 1.75664342,8.6475068 1.75664342,16.5 C1.75664342,24.3524932 8.1475068,30.7433566 16,30.7433566 C23.8543767,30.7433566 30.2433566,24.3524932 30.2433566,16.5 C30.2433566,8.6475068 23.8543767,2.25664342 16,2.25664342 Z M15.6862596,6.10454141 C17.0811637,6.10588462 18.3908388,6.64698245 19.3777964,7.63394004 C20.3642774,8.62042102 20.9071084,9.93156935 20.9077583,11.3249136 C20.9060252,12.7186478 20.3629342,14.0308361 19.3770165,15.0167538 C18.872532,15.5212382 18.2833818,15.9083866 17.6412831,16.1677999 L17.6412831,16.1677999 L17.6412831,25.8946487 C17.6424964,26.0060053 17.6029799,26.1141556 17.532093,26.1968281 L17.532093,26.1968281 L16.0489702,27.9790972 C15.8834518,28.1756395 15.5907182,28.2052768 15.3903629,28.0443514 L15.3903629,28.0443514 L13.9051603,26.8560419 C13.8917715,26.8448196 13.8789027,26.8329907 13.8668571,26.8209451 C13.7829713,26.7370593 13.7346157,26.6262227 13.7288529,26.5044237 C13.7257332,26.3692359 13.7780318,26.2354779 13.8798559,26.1438795 L13.8798559,26.1438795 L14.7811079,25.3010356 L13.8797259,24.4589283 C13.7717057,24.3573208 13.7295028,24.2446643 13.7285496,24.1126828 C13.7298061,23.9828246 13.7841846,23.8576459 13.879076,23.7682139 L13.879076,23.7682139 L14.7823645,22.9276665 L13.8785994,22.0836093 C13.783188,21.9956506 13.7284629,21.8696919 13.7296761,21.739877 C13.7285063,21.6075923 13.7848778,21.4847534 13.8796393,21.3953648 L13.8796393,21.3953648 L14.7809346,20.5509176 L13.8796826,19.7107601 C13.7820181,19.6192484 13.7291995,19.4967561 13.7283763,19.3646447 L13.7283763,19.3646447 L13.7295895,16.1679732 C13.0861476,15.9077367 12.4973874,15.5226248 11.9927729,15.0180103 C11.0063353,14.0315727 10.4651941,12.7213342 10.4653674,11.3250003 C10.4643708,8.44502351 12.8062395,6.10376148 15.6862596,6.10454141 Z M16.6330941,16.4571538 C16.4004584,16.4994866 16.1649197,16.5254843 15.9254813,16.5344968 L15.9254813,16.5344968 L15.9242681,24.8117164 C15.9242681,24.9092076 15.9653011,24.9990295 16.028822,25.0625505 C16.0923429,25.1260714 16.1820782,25.1671044 16.279656,25.1671044 C16.4747251,25.1671044 16.6339174,25.0079121 16.6339174,24.8127563 L16.6339174,24.8127563 Z M15.6856096,7.46608186 C14.8653837,7.46564857 14.2017069,8.12932534 14.2017502,8.94994128 C14.2013169,9.76982062 14.8651237,10.4336274 15.6858696,10.4340607 C16.5054023,10.4335407 17.1697723,9.76969063 17.169859,8.95007126 C17.1692091,8.12910869 16.505229,7.46590854 15.6856096,7.46608186 Z" id="Combined-Shape" fill="url(#linearGradient-1)"></path>
    </g>
</svg>