<?xml version="1.0" encoding="UTF-8"?>
<svg width="32px" height="32px" viewBox="0 0 32 32" version="1.1" xmlns="http://www.w3.org/2000/svg" xmlns:xlink="http://www.w3.org/1999/xlink">
    <!-- Generator: Sketch 59.1 (86144) - https://sketch.com -->
    <title>ico-status</title>
    <desc>Created with Sketch.</desc>
    <defs>
        <linearGradient x1="50%" y1="100%" x2="50%" y2="0.122337342%" id="linearGradient-1">
            <stop stop-color="#CCCCCC" offset="0%"></stop>
            <stop stop-color="#F0F0F0" offset="64%"></stop>
            <stop stop-color="#FFFFFF" offset="100%"></stop>
            <stop stop-color="#FBFBFA" offset="100%"></stop>
            <stop stop-color="#F0EEEB" offset="100%"></stop>
        </linearGradient>
    </defs>
    <g id="Welcome" stroke="none" stroke-width="1" fill="none" fill-rule="evenodd" opacity="0.6">
        <path d="M16,0 C24.8227764,0 32,7.17722357 32,16 C32,24.8227764 24.8227764,32 16,32 C7.17722357,32 0,24.8227764 0,16 C0,7.17722357 7.17722357,0 16,0 Z M16,1.75664342 C8.1475068,1.75664342 1.75664342,8.1475068 1.75664342,16 C1.75664342,23.8524932 8.1475068,30.2433566 16,30.2433566 C23.8543767,30.2433566 30.2433566,23.8524932 30.2433566,16 C30.2433566,8.1475068 23.8543767,1.75664342 16,1.75664342 Z M16,6.4 C19.1621429,6.4 20.0442857,8.90166667 19.9628571,9.85166667 C19.895,10.6207143 19.8588095,10.9554762 19.822619,11.3309524 C19.7864286,11.7064286 20.0895238,11.7652381 19.9085714,12.552381 C19.5647619,14.0542857 19.4380952,13.43 19.2797619,14.3664286 C18.872619,16.7459524 18.2347619,16.017619 18.2347619,17.2707143 C18.2347619,19.202381 18.0583333,18.6911905 20.917381,19.7407143 C23.8216667,20.8083333 24.5047619,22.2869728 24.5861905,22.780068 C24.669127,23.3003061 24.6829497,23.6419255 24.6852535,23.7413476 L24.6857143,23.7714286 L7.31428571,23.7714286 C7.31428571,23.7714286 7.31428571,22.5771429 7.41833333,21.957381 C7.4952381,21.4642857 8.18285714,20.8083333 11.0871429,19.7452381 C13.9461905,18.7002381 13.7697619,19.2114286 13.7697619,17.2752381 C13.7697619,16.0221429 13.1319048,16.7504762 12.7247619,14.3709524 C12.5664286,13.43 12.4397619,14.0542857 12.0959524,12.5569048 C11.915,11.7697619 12.2180952,11.7109524 12.1819048,11.3354762 C12.1457143,10.96 12.1095238,10.6207143 12.0416667,9.85619048 C11.9557143,8.90166667 12.8378571,6.4 16,6.4 Z" id="ico-status" fill="url(#linearGradient-1)"></path>
    </g>
</svg>