<?xml version="1.0" encoding="UTF-8"?>
<svg width="21px" height="15px" viewBox="0 0 21 15" version="1.1" xmlns="http://www.w3.org/2000/svg" xmlns:xlink="http://www.w3.org/1999/xlink">
    <!-- Generator: Sketch 59.1 (86144) - https://sketch.com -->
    <title>Shape</title>
    <desc>Created with Sketch.</desc>
    <defs>
        <linearGradient x1="50%" y1="100%" x2="50%" y2="0.122337342%" id="linearGradient-1">
            <stop stop-color="#CCCCCC" offset="0%"></stop>
            <stop stop-color="#F0F0F0" offset="64%"></stop>
            <stop stop-color="#FFFFFF" offset="100%"></stop>
            <stop stop-color="#FBFBFA" offset="100%"></stop>
            <stop stop-color="#F0EEEB" offset="100%"></stop>
        </linearGradient>
    </defs>
    <g id="Welcome" stroke="none" stroke-width="1" fill="none" fill-rule="evenodd" opacity="0.8">
        <path d="M20.7318921,6.57291848 C18.6761925,2.93284239 14.8422771,0.5 10.474212,0.5 C6.1043231,0.5 2.27124624,2.93455435 0.216530961,6.57291848 C-0.106560941,7.14501018 -0.106560941,7.85502787 0.216530961,8.42711957 C2.27223061,12.0671576 6.10614601,14.5 10.474212,14.5 C14.8441,14.5 18.6771769,12.0654457 20.7318921,8.42708152 C21.0549853,7.85500382 21.0549853,7.14499618 20.7318921,6.57291848 Z M9.97421203,12.5 C7.21090321,12.5 4.97421203,10.2637132 4.97421203,7.5 C4.97421203,4.73669118 7.21046203,2.5 9.97421203,2.5 C12.7375209,2.5 14.974212,4.73625 14.974212,7.5 C14.974212,10.2633088 12.737962,12.5 9.97421203,12.5 Z M13.974212,7.5 C13.974212,9.70915385 12.1833659,11.5 9.97421203,11.5 C7.76505819,11.5 5.97421203,9.70915385 5.97421203,7.5 C5.97421203,6.81892308 6.14463511,6.17773077 6.44482742,5.61642308 L6.44478896,5.61765385 C6.44478896,6.52730769 7.18221203,7.26469231 8.09186588,7.26469231 C9.00151973,7.26469231 9.7389428,6.52726923 9.7389428,5.61765385 C9.7389428,4.708 9.00151973,3.97057692 8.09186588,3.97057692 L8.09063511,3.97061538 C8.6519428,3.67042308 9.29313511,3.5 9.97421203,3.5 C12.1833659,3.5 13.974212,5.29084615 13.974212,7.5 Z" id="Shape" fill="url(#linearGradient-1)" fill-rule="nonzero"></path>
    </g>
</svg>