<?xml version="1.0" encoding="UTF-8"?>
<svg width="32px" height="33px" viewBox="0 0 32 33" version="1.1" xmlns="http://www.w3.org/2000/svg" xmlns:xlink="http://www.w3.org/1999/xlink">
    <!-- Generator: Sketch 59.1 (86144) - https://sketch.com -->
    <title>Combined Shape</title>
    <desc>Created with Sketch.</desc>
    <defs>
        <linearGradient x1="50%" y1="100%" x2="50%" y2="0.122337342%" id="linearGradient-1">
            <stop stop-color="#CCCCCC" offset="0%"></stop>
            <stop stop-color="#F0F0F0" offset="64%"></stop>
            <stop stop-color="#FFFFFF" offset="100%"></stop>
            <stop stop-color="#FBFBFA" offset="100%"></stop>
            <stop stop-color="#F0EEEB" offset="100%"></stop>
        </linearGradient>
    </defs>
    <g id="Welcome" stroke="none" stroke-width="1" fill="none" fill-rule="evenodd" opacity="0.6">
        <path d="M16,0.5 C24.8227764,0.5 32,7.67722357 32,16.5 C32,25.3227764 24.8227764,32.5 16,32.5 C7.17722357,32.5 1.45661261e-13,25.3227764 1.45661261e-13,16.5 C1.45661261e-13,7.67722357 7.17722357,0.5 16,0.5 Z M16,2.25664342 C8.1475068,2.25664342 1.75664342,8.6475068 1.75664342,16.5 C1.75664342,24.3524932 8.1475068,30.7433566 16,30.7433566 C23.8543767,30.7433566 30.2433566,24.3524932 30.2433566,16.5 C30.2433566,8.6475068 23.8543767,2.25664342 16,2.25664342 Z M20.6957162,5.20596646 C20.8272725,5.20832157 22.7348387,5.27661957 22.7348387,7.2572616 L22.7348387,7.2572616 L22.7348387,25.7363318 C22.7348387,27.7941176 20.6885847,27.7941176 20.6885847,27.7941176 L11.4572714,27.7940333 C11.3253032,27.7916708 9.41176471,27.7231595 9.41176471,25.7363318 L9.41176471,25.7363318 L9.41176471,7.2572616 C9.41176471,5.20588235 11.4644253,5.20588235 11.4644253,5.20588235 Z M16.0733017,24.8855412 C15.5082434,24.8855412 15.0469714,25.3468132 15.0469714,25.9118715 C15.0469714,26.4769297 15.5082434,26.9382018 16.0733017,26.9382018 C16.6396412,26.9382018 17.099632,26.4769297 17.099632,25.9118715 C17.099632,25.3468132 16.6396412,24.8855412 16.0733017,24.8855412 Z M21.7149149,7.76850477 L10.438095,7.76850477 L10.438095,24.1705695 L21.7149149,24.1705695 L21.7149149,7.76850477 Z M18.4104133,6.23221263 L13.73619,6.23221263 C13.6106215,6.23221263 13.5106793,6.33215491 13.5106793,6.45644209 L13.5106793,6.45644209 L13.5106793,6.51666372 C13.5106793,6.64223222 13.6157468,6.74217449 13.73619,6.74217449 L13.73619,6.74217449 L18.4104133,6.74217449 C18.5359818,6.74217449 18.6359241,6.64735746 18.6359241,6.51666372 L18.6359241,6.51666372 L18.6359241,6.45644209 C18.6359241,6.33215491 18.5359818,6.23221263 18.4104133,6.23221263 L18.4104133,6.23221263 Z" id="Combined-Shape" fill="url(#linearGradient-1)"></path>
    </g>
</svg>