<?xml version="1.0" encoding="UTF-8"?>
<svg width="32px" height="32px" viewBox="0 0 32 32" version="1.1" xmlns="http://www.w3.org/2000/svg" xmlns:xlink="http://www.w3.org/1999/xlink">
    <!-- Generator: Sketch 59.1 (86144) - https://sketch.com -->
    <title>Combined Shape</title>
    <desc>Created with Sketch.</desc>
    <defs>
        <linearGradient x1="50%" y1="100%" x2="50%" y2="0.122337342%" id="linearGradient-1">
            <stop stop-color="#CCCCCC" offset="0%"></stop>
            <stop stop-color="#F0F0F0" offset="64%"></stop>
            <stop stop-color="#FFFFFF" offset="100%"></stop>
            <stop stop-color="#FBFBFA" offset="100%"></stop>
            <stop stop-color="#F0EEEB" offset="100%"></stop>
        </linearGradient>
    </defs>
    <g id="Welcome" stroke="none" stroke-width="1" fill="none" fill-rule="evenodd" opacity="0.6">
        <path d="M15.7058065,0.5 C24.3663576,0.5 31.4116129,7.54525527 31.4116129,16.2058065 C31.4116129,24.8663576 24.3663576,31.9116129 15.7058065,31.9116129 C7.04525527,31.9116129 2.66453526e-13,24.8663576 2.66453526e-13,16.2058065 C2.66453526e-13,7.54525527 7.04525527,0.5 15.7058065,0.5 Z M15.7058065,2.22434385 C7.99769781,2.22434385 1.72434385,8.49769781 1.72434385,16.2058065 C1.72434385,23.9139151 7.99769781,30.1872691 15.7058065,30.1872691 C23.415764,30.1872691 29.6872691,23.9139151 29.6872691,16.2058065 C29.6872691,8.49769781 23.415764,2.22434385 15.7058065,2.22434385 Z M15.682387,4.1620441 C17.8399934,4.1620441 19.6012971,5.85779346 19.7060615,7.98926438 L19.7109916,8.19032786 L19.7109916,9.66744926 L25.7829092,9.66744926 C26.4144697,9.66744926 26.9345731,10.1481204 26.997119,10.763249 L27.0034249,10.8879649 L27.0034249,22.4079078 C27.0034249,23.0393823 26.522794,23.559561 25.9076327,23.6221166 L25.7829092,23.6284235 L5.58333135,23.6284235 C4.95177086,23.6284235 4.43158687,23.147712 4.36903091,22.5326161 L4.36272401,22.4079078 L4.36272401,10.8879649 C4.36272401,10.2564474 4.84343547,9.73630639 5.45860686,9.67375563 L5.58333135,9.66744926 L11.6547449,9.66744926 L11.6547449,8.19032786 C11.6547449,5.96547963 13.4583179,4.1620441 15.682387,4.1620441 Z M13.751634,11.3965475 L7.67352917,11.3965475 C6.84164456,11.3965475 6.15582346,12.0361528 6.08218866,12.8489703 L6.07564404,12.9941118 L6.07564404,20.3017609 C6.07564404,21.1333858 6.71524932,21.8191925 7.52833711,21.8928265 L7.67352917,21.8993711 L13.7516798,21.8993711 C14.5832181,21.8993711 15.26902,21.2597658 15.3426537,20.4469096 L15.3491983,20.3017609 L15.3491983,12.9941118 C15.3491983,12.1136136 14.6320863,11.3965475 13.751634,11.3965475 Z M24.928122,20.6103844 L21.4459561,20.6103844 C21.133162,20.6103844 20.8798103,20.8640112 20.8798103,21.1764844 C20.8798103,21.4577516 21.0850623,21.6912046 21.3541062,21.7350826 L21.4459561,21.7424928 L24.928122,21.7424928 C25.2404578,21.7424928 25.4940846,21.4889577 25.4940846,21.1764844 C25.4940846,20.8639653 25.2405036,20.6103844 24.928122,20.6103844 Z M7.67352917,12.1511489 L13.751634,12.1511489 C14.180651,12.1511489 14.5358227,12.4733974 14.587926,12.8885271 L14.5945052,12.9941118 L14.5945052,20.3017609 C14.5945052,20.7311164 14.2723348,21.0860798 13.8572171,21.138149 L13.751634,21.1447238 L7.67352917,21.1447238 C7.24425828,21.1447238 6.88898895,20.8227877 6.83687219,20.4074177 L6.83029129,20.3017609 L6.83029129,12.9941118 C6.83029129,12.5650948 7.15253978,12.209845 7.56788575,12.1577297 L7.67352917,12.1511489 L13.751634,12.1511489 Z M12.4897791,18.207805 C11.9944874,18.6654239 11.379761,18.9419201 10.712192,18.9419201 C10.0436147,18.9419201 9.42888836,18.665378 8.93588821,18.207805 C8.91980165,18.22105 8.90706074,18.2367241 8.89253243,18.2476318 C8.34393971,18.6786689 7.95043787,19.2985283 7.82092049,20.025998 C7.80478811,20.1165593 7.82880336,20.2103746 7.888704,20.2810913 C7.93283891,20.3341288 7.99321504,20.3704868 8.05954629,20.385351 L8.12748162,20.3928722 L13.2973607,20.3928722 C13.3896636,20.3928722 13.4765126,20.3523579 13.5361841,20.2810913 C13.5952598,20.2103746 13.6195959,20.1172926 13.6032802,20.025998 C13.4721129,19.2985283 13.0793444,18.6786231 12.5331807,18.2476318 C12.5170483,18.2367241 12.5030699,18.22105 12.4897791,18.207805 Z M24.9280762,17.5917037 L17.6723074,17.5917037 C17.3596966,17.5917037 17.1063449,17.8452388 17.1063449,18.1576204 C17.1063449,18.4388051 17.3115969,18.6723984 17.5805072,18.7163052 L17.6723074,18.7237204 L24.928122,18.7237204 C25.2404578,18.7237204 25.4940387,18.4700479 25.4940387,18.1576204 C25.4940387,17.845193 25.2404578,17.5917037 24.9280762,17.5917037 Z M10.7121462,12.8321922 C9.63686779,12.8321922 8.76338169,13.9803871 8.76333586,15.3962788 C8.76333586,16.8118496 9.63686779,17.9616486 10.7121462,17.9616486 C11.7871954,17.9616486 12.6606357,16.8118496 12.6606357,15.3962788 C12.6606357,13.9804329 11.7871954,12.8321922 10.7121462,12.8321922 Z M23.543991,14.5728397 L17.6723074,14.5728397 C17.3596966,14.5728397 17.1063449,14.8265581 17.1063449,15.1390314 C17.1063449,15.4202161 17.3115969,15.6536609 17.5805072,15.697538 L17.6723074,15.7049481 L23.543991,15.7049481 C23.8564643,15.7049481 24.110091,15.451413 24.110091,15.1390314 C24.110091,14.8265123 23.8564643,14.5728397 23.543991,14.5728397 Z M21.1547024,11.5542049 L17.6723532,11.5542049 C17.3597424,11.5542049 17.1063907,11.80774 17.1063907,12.1201216 C17.1063907,12.4013475 17.3116427,12.6349078 17.580553,12.6788076 L17.6723532,12.6862216 L21.1547024,12.6862216 C21.4670841,12.6862216 21.720665,12.432549 21.720665,12.1201216 C21.720665,11.8076941 21.4670382,11.5542049 21.1547024,11.5542049 Z M15.6823412,5.92125306 C14.7935935,5.92125306 14.0727234,6.64198565 14.0727234,7.53160412 C14.0727234,8.42044348 14.7935476,9.1412219 15.6823412,9.1412219 C16.5719138,9.1412219 17.2926922,8.42048931 17.2926922,7.53160412 C17.2926922,6.64203148 16.5719138,5.92125306 15.6823412,5.92125306 Z" id="Combined-Shape" fill="url(#linearGradient-1)"></path>
    </g>
</svg>