<?xml version="1.0" encoding="UTF-8"?>
<svg width="21px" height="14px" viewBox="0 0 21 14" version="1.1" xmlns="http://www.w3.org/2000/svg" xmlns:xlink="http://www.w3.org/1999/xlink">
    <!-- Generator: Sketch 59.1 (86144) - https://sketch.com -->
    <title>Combined Shape</title>
    <desc>Created with Sketch.</desc>
    <defs>
        <linearGradient x1="50%" y1="100%" x2="50%" y2="0.122337342%" id="linearGradient-1">
            <stop stop-color="#CCCCCC" offset="0%"></stop>
            <stop stop-color="#F0F0F0" offset="64%"></stop>
            <stop stop-color="#FFFFFF" offset="100%"></stop>
            <stop stop-color="#FBFBFA" offset="100%"></stop>
            <stop stop-color="#F0EEEB" offset="100%"></stop>
        </linearGradient>
    </defs>
    <g id="Welcome" stroke="none" stroke-width="1" fill="none" fill-rule="evenodd" opacity="0.8">
        <path d="M10.5,0 C14.868065,0 18.7019804,2.43284239 20.7576801,6.07291848 C21.0807733,6.64499618 21.0807733,7.35500382 20.7576801,7.92708152 C20.1481375,9.00642232 19.382091,9.97982244 18.491954,10.8151508 L20.7824724,12.2460234 L19.7226338,13.9421196 L16.8169884,12.1276947 C14.9860851,13.3146186 12.8186047,14 10.5,14 C6.13193398,14 2.29801858,11.5671576 0.242318927,7.92711957 C-0.0807729756,7.35502787 -0.0807729756,6.64501018 0.242318927,6.07291848 C0.851861553,4.99357768 1.61790799,4.02017756 2.50804509,3.18484918 L0.21752763,1.75397656 L1.27736616,0.0578803652 L4.18301077,1.87230534 C6.0139141,0.68538138 8.18139476,0 10.5,0 Z M5.41496841,5.00087402 C5.14802275,5.61297633 5,6.28905912 5,7 C5,9.76371324 7.23669118,12 10,12 C11.5249272,12 12.8892627,11.3190633 13.805975,10.2444437 L12.9445732,9.70734665 C12.2135326,10.5020316 11.1649243,11 10,11 C7.79084615,11 6,9.20915385 6,7 C6,6.48456961 6.09760591,5.99198223 6.27519702,5.53957514 Z M10,2 C8.66993286,2 7.46203783,2.51803087 6.56677455,3.36348546 L9.74832544,5.35101297 C9.75913789,5.27478145 9.76473077,5.19687063 9.76473077,5.11765385 C9.76473077,4.208 9.02730769,3.47057692 8.11765385,3.47057692 L8.11642308,3.47061538 C8.67773077,3.17042308 9.31892308,3 10,3 C12.2091538,3 14,4.79084615 14,7 C14,7.32332555 13.9616393,7.63769076 13.8892209,7.9387927 L14.7740423,8.49193937 C14.920891,8.0208412 15,7.51973535 15,7 C15,4.23625 12.7633088,2 10,2 Z M8.11765385,6.76469231 L8.228,6.759 L6.59157966,5.73844697 C6.83669888,6.34038797 7.42762403,6.76469231 8.11765385,6.76469231 Z" id="Combined-Shape" fill="url(#linearGradient-1)" fill-rule="nonzero"></path>
    </g>
</svg>