<?xml version="1.0" encoding="UTF-8"?>
<svg width="16px" height="16px" viewBox="0 0 16 16" version="1.1" xmlns="http://www.w3.org/2000/svg" xmlns:xlink="http://www.w3.org/1999/xlink">
    <!-- Generator: Sketch 59.1 (86144) - https://sketch.com -->
    <title>Combined Shape</title>
    <desc>Created with Sketch.</desc>
    <g id="Welcome" stroke="none" stroke-width="1" fill="none" fill-rule="evenodd" opacity="0.8">
        <path d="M8,4.36983782e-13 C12.4112543,4.36983782e-13 16,3.58882089 16,8 C16,12.4111791 12.4111791,16 8,16 C3.58882089,16 1.34647848e-12,12.4111791 1.34647848e-12,8 C1.34647848e-12,3.58882089 3.58882089,4.36983782e-13 8,4.36983782e-13 Z M8,1.05285917 C4.16932232,1.05285917 1.05285917,4.16932232 1.05285917,8 C1.05285917,11.8306777 4.16932232,14.947216 8,14.947216 C11.8306777,14.947216 14.9471408,11.8306777 14.9471408,8 C14.9471408,4.16932232 11.8306777,1.05285917 8,1.05285917 Z M8,2.0836083 C8.29073954,2.0836083 8.52642959,2.31929834 8.52642959,2.61003788 L8.52642959,2.61003788 L8.52642959,3.44630888 C9.1832633,3.583707 9.76602085,3.97356571 10.1442229,4.54782519 C10.3041823,4.79065964 10.2369497,5.11712118 9.99411527,5.27700537 C9.75135603,5.43688955 9.42489448,5.36965697 9.26493509,5.12682253 C9.08421933,4.8523271 8.82431353,4.64935089 8.52642959,4.53872548 L8.52642959,4.53872548 L8.52642959,7.52764225 C9.69156867,7.77055191 10.569578,8.80543727 10.569578,10.0415691 C10.569578,11.277701 9.69156867,12.312436 8.52642959,12.5553456 L8.52642959,12.5553456 L8.52642959,13.3899621 C8.52642959,13.6807017 8.29073954,13.9163917 8,13.9163917 C7.70926046,13.9163917 7.47357041,13.6807017 7.47357041,13.3899621 L7.47357041,13.3899621 L7.47357041,12.5537663 C6.8167367,12.4163682 6.23397915,12.0265095 5.85577709,11.45225 C5.6958177,11.2094156 5.76305028,10.882954 6.00588473,10.7230698 C6.24864397,10.5631104 6.57510552,10.6304182 6.73506491,10.8732527 C6.91578067,11.1477481 7.17568647,11.3507243 7.47357041,11.4613497 L7.47357041,11.4613497 L7.47357041,8.47243295 C6.30850654,8.2295233 5.43042199,7.19463794 5.43042199,5.95850607 C5.43042199,4.7223742 6.30843133,3.68763925 7.47357041,3.44472959 L7.47357041,3.44472959 L7.47357041,2.61003788 C7.47357041,2.31929834 7.70926046,2.0836083 8,2.0836083 Z M8.52642959,8.62208936 L8.52642959,11.4608985 C9.10362202,11.2467921 9.51671884,10.6922361 9.51671884,10.0414939 C9.51671884,9.39075176 9.10354682,8.83619579 8.52642959,8.62208936 L8.52642959,8.62208936 Z M7.47357041,4.5391015 C6.89645318,4.75320793 6.48328116,5.3077639 6.48328116,5.95850607 C6.48328116,6.60924824 6.89645318,7.16380421 7.47357041,7.37791064 L7.47357041,7.37791064 Z" id="Combined-Shape" fill="#F8F8F8" fill-rule="nonzero"></path>
    </g>
</svg>