<?xml version="1.0" encoding="UTF-8"?>
<svg width="24px" height="24px" viewBox="0 0 24 24" version="1.1" xmlns="http://www.w3.org/2000/svg" xmlns:xlink="http://www.w3.org/1999/xlink">
    <!-- Generator: Sketch 59.1 (86144) - https://sketch.com -->
    <title>Combined Shape</title>
    <desc>Created with Sketch.</desc>
    <defs>
        <linearGradient x1="50%" y1="100%" x2="50%" y2="0.122337342%" id="linearGradient-1">
            <stop stop-color="#CCCCCC" offset="0%"></stop>
            <stop stop-color="#F0F0F0" offset="64%"></stop>
            <stop stop-color="#FFFFFF" offset="100%"></stop>
            <stop stop-color="#FBFBFA" offset="100%"></stop>
            <stop stop-color="#F0EEEB" offset="100%"></stop>
        </linearGradient>
    </defs>
    <g id="Welcome" stroke="none" stroke-width="1" fill="none" fill-rule="evenodd" opacity="0.6">
        <path d="M11.4782941,-5.68434189e-14 C16.2270502,-5.68434189e-14 20.419804,2.98686645 22.1613712,7.61028715 C22.319956,8.03016233 22.1216295,8.50476907 21.7200086,8.67156054 C21.3181967,8.8353558 20.8642237,8.631211 20.7046835,8.20913861 C19.2009936,4.21632958 15.5791451,1.63635456 11.4782941,1.63635456 C6.01246706,1.63635456 1.56521324,6.28594255 1.56521324,12 C1.56521324,17.7140574 6.01246706,22.3636454 11.4782941,22.3636454 C15.5791451,22.3636454 19.2009936,19.7836704 20.7046835,15.7920599 C20.8632683,15.3697878 21.3172413,15.1658427 21.7200086,15.3294382 C22.1216295,15.4952309 22.319956,15.9708365 22.1613712,16.3909114 C20.419804,21.0131335 16.2270502,24 11.4782941,24 C5.14961269,24 -2.84217094e-13,18.6163296 -2.84217094e-13,12 C-2.84217094e-13,5.38367041 5.14961269,-5.68434189e-14 11.4782941,-5.68434189e-14 Z M12.8149923,7.05717854 C13.120698,7.37677904 13.120698,7.89493133 12.8149923,8.21453183 L9.977,11.181 L23.2173934,11.1818227 C23.6493938,11.1818227 24,11.5483646 24,12 C24,12.4516354 23.6493938,12.8181773 23.2173934,12.8181773 L9.976,12.818 L12.8149923,15.7854682 C13.120698,16.1050687 13.120698,16.623221 12.8149923,16.9428215 C12.6615663,17.1022222 12.461138,17.1817228 12.2609007,17.1817228 C12.0604724,17.1817228 11.8602351,17.1022222 11.7077644,16.9418227 L7.53392618,12.5782772 L7.52215075,12.5662662 C7.4255862,12.4610441 7.35564092,12.3289189 7.32367232,12.1817641 C7.32164324,12.169963 7.31929847,12.1579543 7.31721323,12.1459062 C7.31268283,12.122679 7.30960503,12.0990086 7.30751734,12.0750406 C7.30673865,12.0609634 7.3058652,12.0472342 7.30532109,12.0334934 C7.30449079,12.0228811 7.30426474,12.011468 7.30426474,12 L7.30532109,11.9653585 C7.3058652,11.9516181 7.30673865,11.9378894 7.30794144,11.9241864 L7.30426474,12 C7.30426474,11.951222 7.30835444,11.9034365 7.3161947,11.8569982 C7.3188977,11.842882 7.32161684,11.8288697 7.32468921,11.8149253 C7.33990449,11.7447622 7.36421728,11.6777219 7.39600289,11.6154731 C7.40156318,11.6044393 7.40576449,11.5965767 7.41009945,11.5887729 C7.42361612,11.5648087 7.43814984,11.5415551 7.45374383,11.5191595 C7.45861006,11.5117503 7.46396388,11.5043124 7.46945492,11.4969499 C7.48489258,11.4767123 7.50077097,11.4573917 7.51746505,11.4388839 C7.52255487,11.4327949 7.52818664,11.4267245 7.53392618,11.4207241 L11.7077644,7.05717854 C12.0134702,6.73757805 12.5090956,6.73757805 12.8149923,7.05717854 Z" id="Combined-Shape" fill="url(#linearGradient-1)" fill-rule="nonzero" transform="translate(12.000000, 12.000000) scale(-1, 1) translate(-12.000000, -12.000000) "></path>
    </g>
</svg>