<?xml version="1.0" encoding="UTF-8"?>
<svg width="18px" height="16px" viewBox="0 0 18 16" version="1.1" xmlns="http://www.w3.org/2000/svg" xmlns:xlink="http://www.w3.org/1999/xlink">
    <!-- Generator: Sketch 59.1 (86144) - https://sketch.com -->
    <title>Group</title>
    <desc>Created with Sketch.</desc>
    <g id="Welcome" stroke="none" stroke-width="1" fill="none" fill-rule="evenodd">
        <g id="Group" fill="#FFDD00" fill-rule="nonzero">
            <path d="M13.3961456,8.25695931 L13.3961456,7.22912206 C15.0964936,7.22912206 16.4796574,5.84595824 16.4796574,4.14561028 L16.4796574,2.08993576 L13.9100642,2.08993576 L13.9100642,1.0620985 L17.5417559,1.0620985 L17.5417559,4.14561028 C17.5417559,6.41260707 15.6631424,8.25695931 13.3961456,8.25695931 Z" id="Path"></path>
            <path d="M3.86549787,8.0888651 C1.60960922,7.49665418 2.79776202e-14,5.45248928 2.79776202e-14,3.11777302 L2.79776202e-14,1.0620985 L3.63169165,1.0620985 L3.63169165,2.08993576 L1.0620985,2.08993576 L1.0620985,3.11777302 C1.0620985,4.98567986 2.32226981,6.62138652 4.12647215,7.09515525 L3.86549787,8.0888651 Z" id="Path"></path>
            <polygon id="Path" points="7.83211991 10.4113062 9.88779443 10.4113062 9.88779443 14.9721627 7.83211991 14.9721627"></polygon>
            <path d="M14.4239829,-1.60760294e-13 L14.4239829,5.68736617 C14.4239829,8.80179337 11.8853051,11.3404711 8.77087794,11.3404711 C5.65645074,11.3404711 3.11777302,8.80179337 3.11777302,5.68736617 L3.11777302,5.68736617 L3.11777302,-1.60760294e-13 L14.4239829,-1.60760294e-13 Z M8.77087794,1.05250535 L7.46812468,3.68533116 L4.56085653,4.11047582 L6.67265239,6.16745465 L6.16537142,9.06097391 L8.77087794,7.68965469 L11.3763845,9.06097391 L10.8691035,6.16745465 L12.9808994,4.11047582 L10.0736312,3.68533116 L8.77087794,1.05250535 Z" id="Combined-Shape"></path>
            <path d="M13.5098929,14.9721627 L13.5098929,16 L4.03734475,16 L4.03734475,14.9721627 C4.03734475,14.4068522 4.64629428,13.9443255 5.39056592,13.9443255 L12.1566718,13.9443255 C12.9009434,13.9443255 13.5098929,14.4068522 13.5098929,14.9721627 Z" id="Path"></path>
        </g>
    </g>
</svg>