<?xml version="1.0" encoding="UTF-8"?>
<svg width="16px" height="16px" viewBox="0 0 16 16" version="1.1" xmlns="http://www.w3.org/2000/svg" xmlns:xlink="http://www.w3.org/1999/xlink">
    <!-- Generator: Sketch 59.1 (86144) - https://sketch.com -->
    <title>Combined Shape</title>
    <desc>Created with Sketch.</desc>
    <g id="Welcome" stroke="none" stroke-width="1" fill="none" fill-rule="evenodd">
        <path d="M9.87111098,0.195915061 C10.2042128,0.0020432012 10.593394,-0.0501832256 10.965564,0.0492583456 C11.3395066,0.149381724 11.6520175,0.390502819 11.8455514,0.727860991 L11.8455514,0.727860991 L13.9339575,4.37552918 C14.6812632,4.43566457 15.2727397,5.05580226 15.2727397,5.81833536 L15.2727397,5.81833536 L15.2727397,8.06710576 C15.6950913,8.21771695 16,8.61756275 16,9.09100963 L16,9.09100963 L16,11.2727925 C16,11.7462394 15.6950913,12.1460851 15.2727397,12.2966963 L15.2727397,12.2966963 L15.2727397,14.5454667 C15.2727397,15.347681 14.620377,16 13.8181849,16 L13.8181849,16 L1.45455475,16 C0.652328619,16 2.0783375e-13,15.3476469 2.0783375e-13,14.5454667 L2.0783375e-13,14.5454667 L2.0783375e-13,5.81833536 C2.0783375e-13,5.01612108 0.65236271,4.3638021 1.45455475,4.3638021 L1.45455475,4.3638021 L2.71192797,4.3638021 Z M13.8181849,5.09108578 L1.45455475,5.09108578 C1.05364623,5.09108578 0.727294421,5.41743276 0.727294421,5.81833536 L0.727294421,5.81833536 L0.727294421,14.5454667 C0.727294421,14.9463693 1.05364623,15.2727163 1.45455475,15.2727163 L1.45455475,15.2727163 L13.8181849,15.2727163 C14.2190934,15.2727163 14.5454452,14.9463693 14.5454452,14.5454667 L14.5454452,14.5454667 L14.5454452,12.3636839 L12.3636302,12.3636839 C11.1604955,12.3636839 10.1818151,11.3850179 10.1818151,10.1819011 C10.1818151,8.97878417 11.1604955,8.00011821 12.3636302,8.00011821 L12.3636302,8.00011821 L14.5454452,8.00011821 L14.5454452,5.81833536 C14.5454452,5.41743276 14.2190934,5.09108578 13.8181849,5.09108578 L13.8181849,5.09108578 Z M14.9090925,8.72736779 L12.3636302,8.72736779 C11.561404,8.72736779 10.9090754,9.37972086 10.9090754,10.1819011 C10.9090754,10.9841153 11.5614381,11.6364343 12.3636302,11.6364343 L12.3636302,11.6364343 L14.9090925,11.6364343 C15.1097513,11.6364343 15.2727397,11.4734142 15.2727397,11.2727925 L15.2727397,11.2727925 L15.2727397,9.09100963 C15.2727397,8.89035379 15.1097172,8.72736779 14.9090925,8.72736779 L14.9090925,8.72736779 Z M12.3636302,9.45465147 C12.7645728,9.45465147 13.0909246,9.78099845 13.0908905,10.1819011 C13.0908905,10.5828036 12.7645387,10.9091506 12.3636302,10.9091506 C11.9627216,10.9091506 11.6363698,10.5828036 11.6363698,10.1819011 C11.6363698,9.78099845 11.9627216,9.45465147 12.3636302,9.45465147 Z M12.2965394,2.97986997 L9.91941773,4.3638021 L13.0888791,4.3638021 L12.2965394,2.97986997 Z M11.5762336,1.72179944 L7.03833091,4.3638021 L8.47399933,4.3638021 L11.9352103,2.34875519 L11.5762336,1.72179944 Z M10.7773483,0.75165606 C10.593735,0.702634127 10.401633,0.728201895 10.2372127,0.824438972 L10.2372127,0.824438972 L4.15738046,4.3638021 L5.59298069,4.3638021 L11.2149045,1.09068466 C11.117916,0.921391947 10.9630753,0.801359801 10.7773483,0.75165606 Z" id="Combined-Shape" fill="#FFDD00" fill-rule="nonzero"></path>
    </g>
</svg>