<?xml version="1.0" encoding="UTF-8"?>
<svg width="30px" height="30px" viewBox="0 0 30 30" version="1.1" xmlns="http://www.w3.org/2000/svg" xmlns:xlink="http://www.w3.org/1999/xlink">
    <!-- Generator: Sketch 59.1 (86144) - https://sketch.com -->
    <title>Group 61</title>
    <desc>Created with Sketch.</desc>
    <g id="Welcome" stroke="none" stroke-width="1" fill="none" fill-rule="evenodd">
        <g id="Group-61" fill-rule="nonzero">
            <path d="M15,0.5 C6.99187113,0.5 0.5,6.99187113 0.5,15 C0.5,23.0081289 6.99187113,29.5 15,29.5 C23.0081289,29.5 29.5,23.0081289 29.5,15 C29.5,11.1543609 27.9723258,7.46622916 25.2530483,4.74695167 C22.5337708,2.02767419 18.8456391,0.5 15,0.5 Z" id="Path" stroke="#FFDD00"></path>
            <path d="M14.5,21 C17.5375661,21 20,18.5375661 20,15.5 C20,12.4624339 17.5375661,10 14.5,10 C11.4624339,10 9,12.4624339 9,15.5 C9,18.5375661 11.4624339,21 14.5,21 Z M10.3376,15.5022 C10.3376,13.8164865 11.3532859,12.2968424 12.9108526,11.6521596 C14.4684193,11.0074768 16.260979,11.3647777 17.4523286,12.5573867 C18.6436782,13.7499956 18.999085,15.5429318 18.352757,17.0998165 C17.7064289,18.6567012 16.1857125,19.6707801 14.5,19.6690023 C12.2034666,19.6593417 10.344832,17.7987423 10.3376,15.5022 Z" id="Shape" fill="#FFDD00"></path>
            <path d="M20.3506261,24 L9.64937388,24 C7.63388034,24 6,22.3507781 6,20.3163597 L6,9.6836403 C6,7.64922194 7.63388034,6 9.64937388,6 L20.3506261,6 C22.3661197,6 24,7.64922194 24,9.6836403 L24,20.3228602 C23.9964477,22.3547395 22.3636073,24 20.3506261,24 Z M9.64937388,7.34561213 C8.37061881,7.34680673 7.3342783,8.39287814 7.33309481,9.6836403 L7.33309481,20.3228602 C7.33546288,21.6124248 8.37180307,22.6565547 9.64937388,22.6565547 L20.3506261,22.6565547 C21.6278483,22.6565547 22.6635737,21.6120745 22.6647585,20.3228602 L22.6647585,9.6836403 C22.6647585,8.39322873 21.6290333,7.34680807 20.3506261,7.34561213 L9.64937388,7.34561213 Z" id="Shape" fill="#FFDD00"></path>
            <path d="M20,9 C19.4477153,9 19,9.44771525 19,10 C19,10.5522847 19.4477153,11 20,11 C20.5522847,11 21,10.5522847 21,10 C20.993174,9.45056752 20.5494325,9.00682603 20,9 L20,9 Z" id="Path" fill="#FFDD00"></path>
        </g>
    </g>
</svg>