<?xml version="1.0" encoding="UTF-8"?>
<svg width="30px" height="30px" viewBox="0 0 30 30" version="1.1" xmlns="http://www.w3.org/2000/svg" xmlns:xlink="http://www.w3.org/1999/xlink">
    <!-- Generator: Sketch 59.1 (86144) - https://sketch.com -->
    <title>Group 65</title>
    <desc>Created with Sketch.</desc>
    <g id="Welcome" stroke="none" stroke-width="1" fill="none" fill-rule="evenodd">
        <g id="Group-65" fill-rule="nonzero">
            <path d="M29.5,15 C29.5,6.99187113 23.0081289,0.5 15,0.5 C6.99187113,0.5 0.5,6.99187113 0.5,15 C0.5,23.0081289 6.99187113,29.5 15,29.5 C18.8456391,29.5 22.5337708,27.9723258 25.2530483,25.2530483 C27.9723258,22.5337708 29.5,18.8456391 29.5,15 Z" id="Path" stroke="#FFDD00"></path>
            <g id="Group-58" transform="translate(6.500000, 6.500000)">
                <path d="M16.5139622,10.3046021 C16.6395205,9.7415207 16.7023817,9.1662742 16.7013979,8.58936498 C16.7013979,8.38449549 16.7013979,8.18616439 16.6752441,7.98565383 C16.3246526,3.78769722 12.8018873,0.566917135 8.58935263,0.592916505 C8.12482223,0.593285905 7.66114286,0.632654495 7.20319981,0.710607488 C6.45212137,0.244265697 5.58522845,-0.00190513981 4.70115038,0 C2.12329632,-0.0168098168 0.0191916287,2.05800874 0,4.63581973 C0.00265451153,5.46009766 0.228609169,6.26825365 0.653845671,6.97438315 C0.591716739,7.26565076 0.547318949,7.56041988 0.520897051,7.85706553 C0.499102196,8.09680642 0.486025282,8.33654731 0.486025282,8.58064713 C0.486025282,12.9984179 4.11922773,16.5792751 8.60025006,16.5792751 C9.09732086,16.5787984 9.59333955,16.5335737 10.0823002,16.4441484 C10.7648985,16.8070463 11.5257694,16.9978232 12.2988371,17 C14.8762018,17.0156198 16.9795987,14.9414991 17,12.3641943 C17.0016649,11.6490574 16.8351769,10.9435441 16.5139622,10.3046021 L16.5139622,10.3046021 Z" id="Path" stroke="#FFDD00"></path>
                <path d="M6.21111456,3.37331879 L6.21111456,3.37331879 C5.63004504,3.57671927 5.11695803,3.94552819 4.7314162,4.43693167 C4.38293216,4.89637498 4.19591721,5.46370259 4.20083864,6.046489 C4.1831466,6.61691687 4.35875825,7.1759267 4.69759452,7.62777031 C5.04918327,8.0668819 5.50188628,8.40857886 6.01452606,8.62178072 C6.66444271,8.8917073 7.33746383,9.09851471 8.02480198,9.23950272 C8.61033976,9.36565721 9.08172938,9.48746155 9.43262927,9.5983905 C9.73636488,9.68702621 10.0162507,9.84627763 10.2506911,10.0638571 C10.4516247,10.2563991 10.5605416,10.5298216 10.5487446,10.8120837 C10.5408127,11.2205674 10.3248858,11.5947229 9.98011767,11.7973938 C9.51711203,12.0918134 8.97862466,12.2358296 8.43488981,12.2106585 C8.05350383,12.2269894 7.67326758,12.1572031 7.32088833,12.0062013 C7.07321635,11.8897808 6.85589026,11.7146115 6.68673189,11.4950581 C6.50993759,11.2455143 6.36235799,10.9753896 6.24705009,10.6902794 C6.15004243,10.432511 5.99586335,10.20162 5.79679902,10.0160054 C5.60762588,9.85284196 5.36713518,9.76623238 5.12036548,9.7723967 C4.8252551,9.76294836 4.53833236,9.87307486 4.32132836,10.0790826 C4.11516021,10.2688139 3.9981371,10.540534 4,10.8251342 C4.01774401,11.3411825 4.1889183,11.8392108 4.49043675,12.251985 C4.81860293,12.7340995 5.25328532,13.1291897 5.75874963,13.4047761 C6.47957412,13.7984651 7.40332866,13.9985722 8.50676087,13.9985722 C9.32576075,14.0163165 10.1401851,13.8685189 10.9038722,13.5635567 C11.524475,13.3180231 12.0646787,12.8964222 12.4617832,12.3476884 C12.8169983,11.8334534 13.0049443,11.2167393 12.9987023,10.5858757 C13.0131906,10.1027784 12.9061541,9.62402157 12.6879657,9.19600117 C12.477346,8.81456419 12.1799499,8.49138836 11.8212852,8.25419263 C11.4119015,7.99055556 10.9705325,7.78359087 10.5085814,7.6386457 C10.0054839,7.47333981 9.43474313,7.31890931 8.81749753,7.18187943 C8.32708321,7.06442525 7.97195561,6.96437169 7.76057013,6.91434491 C7.5473227,6.85395162 7.34053021,6.77160801 7.14332452,6.66856115 C6.96784878,6.58302649 6.8116248,6.46079827 6.68461803,6.30967337 C6.58222679,6.18031636 6.52823557,6.01750954 6.53242049,5.85073202 C6.54885387,5.52934368 6.72995685,5.24112515 7.00803782,5.09380507 C7.40059225,4.85109799 7.85236632,4.72884621 8.31017237,4.74144252 C8.90205172,4.74144252 9.3332781,4.84367116 9.59116838,5.04595336 C9.87914062,5.28145787 10.1142177,5.57824988 10.280285,5.91598435 C10.4002216,6.1477413 10.5542357,6.35904088 10.7368777,6.54240666 C10.9235884,6.69680657 11.1593888,6.77432405 11.3985142,6.75991441 C11.995491,6.76247414 12.4848845,6.27340469 12.4998326,5.65932521 C12.494001,5.34342888 12.411916,5.03398293 12.260967,4.75884314 C12.0733648,4.41887213 11.8192853,4.1226248 11.5147763,3.88881215 C11.1340326,3.59384275 10.704243,3.37272406 10.2464634,3.23628891 C9.66634932,3.06752478 9.06509099,2.98835818 8.46236992,3.00138054 C7.69706077,2.98574768 6.9350408,3.10869888 6.21111456,3.36461848" id="path78" fill="#FFDD00"></path>
            </g>
        </g>
    </g>
</svg>