<?xml version="1.0" encoding="UTF-8"?>
<svg width="30px" height="30px" viewBox="0 0 30 30" version="1.1" xmlns="http://www.w3.org/2000/svg" xmlns:xlink="http://www.w3.org/1999/xlink">
    <!-- Generator: Sketch 59.1 (86144) - https://sketch.com -->
    <title>Combined Shape</title>
    <desc>Created with Sketch.</desc>
    <g id="Welcome" stroke="none" stroke-width="1" fill="none" fill-rule="evenodd">
        <path d="M15,0 C23.2842712,0 30,6.71572875 30,15 C30,18.9782473 28.4196474,22.793556 25.6066017,25.6066017 C22.793556,28.4196474 18.9782473,30 15,30 C6.71572875,30 0,23.2842712 0,15 C0,6.71572875 6.71572875,0 15,0 Z M15,1 C7.2680135,1 1,7.2680135 1,15 C1,22.7319865 7.2680135,29 15,29 C18.7130309,29 22.2739856,27.5250042 24.8994949,24.8994949 C27.5250042,22.2739856 29,18.7130309 29,15 C29,7.2680135 22.7319865,1 15,1 Z M18.5,9.5 C20.9852814,9.5 23,11.5147186 23,14 L23,17 C23,19.4852814 20.9852814,21.5 18.5,21.5 L11.5,21.5 C9.01471863,21.5 7,19.4852814 7,17 L7,14 C7,11.5147186 9.01471863,9.5 11.5,9.5 L18.5,9.5 Z M18.5,10.5 L11.5,10.5 C9.56700338,10.5 8,12.0670034 8,14 L8,17 C8,18.9329966 9.56700338,20.5 11.5,20.5 L18.5,20.5 C20.4329966,20.5 22,18.9329966 22,17 L22,14 C22,12.0670034 20.4329966,10.5 18.5,10.5 Z M12.9033492,12.5305314 L18.3578363,15.2845088 C18.4454955,15.3291284 18.5,15.4146377 18.5,15.5075422 C18.5,15.6004467 18.4454955,15.685956 18.3578363,15.7305756 L12.9033492,18.4694686 C12.8199754,18.5113159 12.7192431,18.5100734 12.637093,18.4661843 C12.554943,18.4222953 12.5030768,18.3420113 12.5,18.2539774 L12.5,12.7460226 C12.5030768,12.6579887 12.554943,12.5777047 12.637093,12.5338157 C12.7192431,12.4899266 12.8199754,12.4886841 12.9033492,12.5305314 Z" id="Combined-Shape" fill="#FFDD00" fill-rule="nonzero"></path>
    </g>
</svg>