<?xml version="1.0" encoding="UTF-8"?>
<svg width="24px" height="26px" viewBox="0 0 24 26" version="1.1" xmlns="http://www.w3.org/2000/svg" xmlns:xlink="http://www.w3.org/1999/xlink">
    <!-- Generator: Sketch 59.1 (86144) - https://sketch.com -->
    <title>slot-icon-all</title>
    <desc>Created with Sketch.</desc>
    <g id="Welcome" stroke="none" stroke-width="1" fill="none" fill-rule="evenodd">
        <g id="Artboard" transform="translate(-8.000000, -9.000000)">
            <rect id="Rectangle" x="8" y="9" width="24" height="26"></rect>
            <path d="M20.0112778,22.852853 L20.3887887,23.2247519 C20.7791423,23.6093856 24.2227149,27.0147538 24.923236,28.1546251 C25.3811487,28.899826 25.5854449,29.643408 25.5854449,30.5659246 C25.5854449,32.5878417 24.2038285,34 22.2256198,34 C21.1103547,34 20.4177118,33.543922 20.0056659,33.0929163 C19.4670276,33.6832492 18.702077,34 17.7815031,34 C16.1082817,34 14.4144471,32.8205214 14.4144471,30.5659246 C14.4144471,29.639307 14.6175562,28.8955091 15.0729867,28.1546251 C15.7740475,27.0141063 19.239744,23.6081985 19.6325798,23.2235648 L19.6325798,23.2235648 L20.0112778,22.852853 Z M28.5660325,16.4145551 C30.5878417,16.4145551 32,17.7961715 32,19.7742723 C32,20.8895374 31.543922,21.5821803 31.0929163,21.9942262 C31.6832492,22.5328645 32,23.297815 32,24.2187128 C32,25.8919342 30.8205214,27.5856608 28.5660325,27.5856608 C27.6390911,27.5856608 26.8952933,27.3825517 26.1546251,26.9271212 C25.0142142,26.2261684 21.6081985,22.7603639 21.2235648,22.3675281 L21.2235648,22.3675281 L20.852853,21.9888301 L21.2247519,21.6113192 C21.6093856,21.2208577 25.0148617,17.7772851 26.1547331,17.076764 C26.8996101,16.6188513 27.6431922,16.4145551 28.5660325,16.4145551 Z M11.4340754,16.4144471 C12.3610168,16.4144471 13.1048147,16.6175562 13.8454828,17.0729867 C14.9858937,17.7739396 18.3918015,21.239744 18.7764352,21.6325798 L18.7764352,21.6325798 L19.147147,22.0112778 L18.7752481,22.3887887 C18.3907223,22.7791423 14.9853541,26.2227149 13.8453749,26.923236 C13.1004978,27.3811487 12.3569158,27.5854449 11.4340754,27.5854449 C9.4121583,27.5854449 8,26.2038285 8,24.2257277 C8,23.1104626 8.45618595,22.4178197 8.90719165,22.0057738 C8.31675083,21.4671355 8,20.702185 8,19.7815031 C8,18.1082817 9.17958657,16.4144471 11.4340754,16.4144471 Z M22.2184969,10 C23.8917183,10 25.5856608,11.1795866 25.5856608,13.4340754 C25.5856608,14.360801 25.3825517,15.1044909 24.9270133,15.8453749 C24.2260604,16.9857858 20.760256,20.3918015 20.3674202,20.7764352 L20.3674202,20.7764352 L19.9887222,21.147147 L19.6112113,20.7752481 C19.2208577,20.3906144 15.7771772,16.9852462 15.076656,15.8453749 C14.6187433,15.1003899 14.4144471,14.3568078 14.4144471,13.4340754 C14.4144471,11.4121583 15.7960635,10 17.7742723,10 C18.8894295,10 19.5820724,10.456078 19.9942262,10.9069758 C20.5327566,10.3166429 21.2977071,10 22.2184969,10 Z" id="Combined-Shape" fill="#FFDD00" fill-rule="nonzero"></path>
        </g>
    </g>
</svg>