<?xml version="1.0" encoding="UTF-8"?>
<svg width="26px" height="26px" viewBox="0 0 26 26" version="1.1" xmlns="http://www.w3.org/2000/svg" xmlns:xlink="http://www.w3.org/1999/xlink">
    <!-- Generator: Sketch 59.1 (86144) - https://sketch.com -->
    <title>slot-icon-jackpot</title>
    <desc>Created with Sketch.</desc>
    <g id="Welcome" stroke="none" stroke-width="1" fill="none" fill-rule="evenodd">
        <g id="Artboard" transform="translate(-6.000000, -4.000000)">
            <rect id="Rectangle" x="6" y="4" width="26" height="26"></rect>
            <path d="M28.2822967,26 C28.6786603,26 29,26.2035152 29,26.4545455 L29,26.4545455 L29,27.5454545 C29,27.7964848 28.6786603,28 28.2822967,28 L28.2822967,28 L9.71770335,28 C9.32133971,28 9,27.7964848 9,27.5454545 L9,27.5454545 L9,26.4545455 C9,26.2035152 9.32133971,26 9.71770335,26 L9.71770335,26 Z M19,8 C19.8441495,8 20.5308411,8.73951402 20.5308411,9.64859813 C20.5308411,10.0894804 20.368329,10.4896449 20.1056075,10.7857645 C20.1064822,10.7870206 20.1075514,10.7880673 20.1084262,10.789428 L23.384329,15.5110131 C23.8955813,16.2479103 24.7106692,16.6878505 25.5649271,16.6878505 C26.2919551,16.6878505 26.9756336,16.3829383 27.4897047,15.8292187 L29.5102206,13.6532785 C29.1619664,13.3507738 28.9383178,12.888329 28.9383178,12.3700935 C28.9383178,11.4610093 29.6250093,10.7214953 30.4691589,10.7214953 C31.3133084,10.7214953 32,11.4610093 32,12.3700935 C32,13.0872075 31.5718505,13.6971364 30.9770093,13.9234393 C30.9809944,14.0004785 30.9757458,14.0788785 30.9577645,14.1567551 L29.3540262,21.0651664 C29.2731589,21.4132037 28.983514,21.657929 28.6505196,21.6598131 L19.0280897,21.7121495 L9.40186916,21.7121495 C9.06712523,21.7121495 8.77543925,21.4665869 8.69457196,21.1167701 L7.09083364,14.1821907 C7.07236636,14.1022206 7.06702056,14.0216224 7.07168598,13.9425944 C6.45128224,13.7320972 6,13.106886 6,12.3700935 C6,11.4610093 6.68669159,10.7214953 7.53084112,10.7214953 C8.37499065,10.7214953 9.06168224,11.4610093 9.06168224,12.3700935 C9.06168224,12.8820486 8.84386542,13.3400972 8.50280374,13.6427065 L10.5106841,15.8213682 C11.0181458,16.3720523 11.7223327,16.6877458 12.4427514,16.6877458 C13.2945794,16.6877458 14.1067514,16.2520972 14.6181981,15.5222131 L17.9180112,10.8136075 C17.6408075,10.5152897 17.4691589,10.1030879 17.4691589,9.64859813 C17.4691589,8.73951402 18.1558505,8 19,8 Z" id="Combined-Shape" fill="#FFDD00" fill-rule="nonzero"></path>
        </g>
    </g>
</svg>