<?xml version="1.0" encoding="UTF-8"?>
<svg width="24px" height="26px" viewBox="0 0 24 26" version="1.1" xmlns="http://www.w3.org/2000/svg" xmlns:xlink="http://www.w3.org/1999/xlink">
    <!-- Generator: Sketch 59.1 (86144) - https://sketch.com -->
    <title>slot-icon-new</title>
    <desc>Created with Sketch.</desc>
    <defs>
        <linearGradient x1="50%" y1="100%" x2="50%" y2="0.122337342%" id="linearGradient-1">
            <stop stop-color="#CCCCCC" offset="0%"></stop>
            <stop stop-color="#F0F0F0" offset="64%"></stop>
            <stop stop-color="#FFFFFF" offset="100%"></stop>
            <stop stop-color="#FBFBFA" offset="100%"></stop>
            <stop stop-color="#F0EEEB" offset="100%"></stop>
        </linearGradient>
    </defs>
    <g id="Welcome" stroke="none" stroke-width="1" fill="none" fill-rule="evenodd">
        <g id="Artboard" transform="translate(-5.000000, -3.000000)">
            <rect id="Rectangle" x="5" y="3" width="24" height="26"></rect>
            <path d="M18.4113265,15.4660045 L28.8318733,18.9393668 L19.77124,27.9995401 L9.42224828,24.4550827 L18.4113265,15.4660045 Z M20.7460624,24.7126072 C20.1917408,24.457382 19.2984985,24.6947644 18.7498793,25.242372 C18.2018119,25.7905314 18.2064105,26.4417926 18.7607321,26.6974776 C19.3150537,26.9531627 20.208296,26.7158722 20.7564554,26.1677129 C21.3049826,25.6195535 21.2998321,24.9682923 20.7460624,24.7126072 Z M17.4138787,23.6173001 C16.8595571,23.361615 15.9667747,23.5989055 15.4181555,24.1470649 C14.8696282,24.6952243 14.8747787,25.3464855 15.4285484,25.6021706 C15.98287,25.8578556 16.8761123,25.6205652 17.4242717,25.0724058 C17.9724311,24.5242464 17.9677405,23.8729852 17.4138787,23.6173001 Z M14.0719459,22.4466671 C13.5176243,22.190982 12.6243821,22.4282725 12.0762227,22.9764319 C11.5276954,23.5245913 11.5328459,24.1758525 12.0866156,24.4315376 C12.6409372,24.6872226 13.5341795,24.4499322 14.0823389,23.9017728 C14.6304063,23.3536134 14.6261755,22.7023522 14.0719459,22.4466671 Z M14.0606332,4.16766687 L17.5339955,14.5873859 L8.54491734,23.5773838 L5,13.2273804 L14.0606332,4.16766687 Z M26.1581247,19.3010048 C25.6038031,19.0453197 24.7105608,19.2826102 24.1624014,19.8307696 C23.614334,20.378929 23.6189327,21.0301902 24.1732542,21.2858752 C24.7275758,21.5415603 25.6209101,21.3042698 26.1689775,20.7561105 C26.7170449,20.2079511 26.7118944,19.5566899 26.1581247,19.3010048 Z M10.7209997,18.1679888 C10.4657745,17.6141271 9.81405348,17.6094364 9.26589409,18.1575958 C8.7177347,18.7057552 8.4809041,19.5990895 8.73612931,20.1533191 C8.99135453,20.7076407 9.64307558,20.7123313 10.191235,20.1641719 C10.7393944,19.6160125 10.976225,18.7218505 10.7209997,18.1679888 Z M22.826033,18.2056977 C22.2717114,17.9500126 21.3784691,18.1873031 20.8303097,18.7354625 C20.2822423,19.2836219 20.2869329,19.9348831 20.8407027,20.1905682 C21.3950243,20.4462532 22.2882665,20.2089628 22.8364259,19.6608034 C23.3849532,19.112644 23.3798027,18.4613828 22.826033,18.2056977 Z M19.4840082,17.0346049 C18.9297786,16.7793796 18.0364443,17.0162103 17.4882849,17.5643696 C16.9397577,18.112529 16.9449081,18.7637902 17.4986779,19.0194753 C18.0529995,19.2751604 18.9462418,19.0378699 19.4944011,18.4897105 C20.0429284,17.9415511 20.0377779,17.2902899 19.4840082,17.0346049 Z M15.3132142,4 L25.5784185,7.42204134 L29,17.6872456 L18.7347957,14.2647444 L15.3132142,4 Z M23.0981812,9.97015474 C22.5312593,9.40314088 21.7608931,9.25478835 21.3775494,9.63813203 C20.9937458,10.0213837 21.1425582,10.791842 21.7095721,11.3587639 C22.276494,11.9257777 23.0468603,12.0741303 23.430204,11.6907866 C23.8139155,11.3075349 23.6651031,10.5371686 23.0981812,9.97015474 Z M13.744154,7.42673197 C13.4889287,6.87296222 12.8372077,6.86817962 12.2890483,7.41633901 C11.7408889,7.9644984 11.5035984,8.85829252 11.7592835,9.41206227 C12.0145087,9.96583201 12.6662298,9.97061461 13.2143892,9.42245522 C13.7625486,8.87429583 13.999931,7.98096158 13.744154,7.42673197 Z" id="Combined-Shape" fill="url(#linearGradient-1)" fill-rule="nonzero"></path>
        </g>
    </g>
</svg>