<?xml version="1.0" encoding="UTF-8"?>
<svg width="19px" height="26px" viewBox="0 0 19 26" version="1.1" xmlns="http://www.w3.org/2000/svg" xmlns:xlink="http://www.w3.org/1999/xlink">
    <!-- Generator: Sketch 59.1 (86144) - https://sketch.com -->
    <title>slot-icon-Popular </title>
    <desc>Created with Sketch.</desc>
    <g id="Welcome" stroke="none" stroke-width="1" fill="none" fill-rule="evenodd">
        <path d="M4.94092228,26 C1.78303133,16.4762376 8.45557632,12.9988637 8.45557632,12.9988637 C7.98872168,18.0808297 11.1441293,22.0400361 11.1441293,22.0400361 C12.3046438,21.7195722 14.51972,20.2218013 14.51972,20.2218013 C14.51972,22.0400361 13.3509279,25.9977272 13.3509279,25.9977272 C13.3509279,25.9977272 17.4425282,23.1021883 18.7305172,18.2929571 C20.0168509,13.4837263 16.2803581,8.65555517 16.2803581,8.65555517 C16.5055078,12.0594424 15.247318,15.407267 12.7822592,17.9649173 C12.9055951,17.8346105 13.0090646,17.6899094 13.0885292,17.5330866 C13.5313789,16.7224569 14.2424218,14.6155773 13.8260602,9.73664732 C13.2400087,2.88796293 6.45985544,0 6.45985544,0 C7.04425161,4.17284885 5.29189102,5.13424045 1.18704668,13.0549258 C-2.91779745,20.9740959 4.94092228,26 4.94092228,26 Z" id="Path" fill="#FFDD00" fill-rule="nonzero"></path>
    </g>
</svg>