<?xml version="1.0" encoding="UTF-8"?>
<svg width="33px" height="26px" viewBox="0 0 33 26" version="1.1" xmlns="http://www.w3.org/2000/svg" xmlns:xlink="http://www.w3.org/1999/xlink">
    <!-- Generator: Sketch 59.1 (86144) - https://sketch.com -->
    <title>slot-icon-table</title>
    <desc>Created with Sketch.</desc>
    <defs>
        <linearGradient x1="50%" y1="100%" x2="50%" y2="0.122337342%" id="linearGradient-1">
            <stop stop-color="#CCCCCC" offset="0%"></stop>
            <stop stop-color="#F0F0F0" offset="64%"></stop>
            <stop stop-color="#FFFFFF" offset="100%"></stop>
            <stop stop-color="#FBFBFA" offset="100%"></stop>
            <stop stop-color="#F0EEEB" offset="100%"></stop>
        </linearGradient>
    </defs>
    <g id="Welcome" stroke="none" stroke-width="1" fill="none" fill-rule="evenodd">
        <g id="Artboard" transform="translate(-5.000000, -5.000000)">
            <rect id="Rectangle" x="5" y="5" width="33" height="26"></rect>
            <path d="M23.3031884,8.13931291 C23.4966734,7.36328694 24.2687412,6.8876257 25.0277089,7.0768576 L25.0277089,7.0768576 L36.9832021,10.0576968 C37.7421697,10.2469287 38.2005558,11.0293766 38.0070708,11.8054025 L38.0070708,11.8054025 L33.5053827,29.8606871 C33.3118977,30.6367131 32.5398299,31.1123743 31.7808622,30.9231424 L31.7808622,30.9231424 L21.5,28.36 L11.2191378,30.9231424 C10.5048153,31.101243 9.77888847,30.6903725 9.53464732,29.9944407 L9.49461729,29.8606871 L4.99292925,11.8054025 C4.79944424,11.0293766 5.25783026,10.2469287 6.01679795,10.0576968 L6.01679795,10.0576968 L17.9722911,7.0768576 C18.7312588,6.8876257 19.5033266,7.36328694 19.6968116,8.13931291 L19.6968116,8.13931291 L21.5,15.372 Z M30.8950219,25.7772699 L29.5420758,27.9024464 L29.9983771,28.0162151 L30.2741452,27.5626225 L31.0645819,27.7597005 L31.0951219,28.2896643 L31.5512171,28.4033816 L31.3575071,25.8925804 L30.8950219,25.7772699 Z M31.0156549,26.4189513 L31.0249994,26.4213336 L31.0807049,27.4056119 L30.5130251,27.2608923 L31.0156549,26.4189513 Z M29.3660232,15.239861 C23.9586,17.1148327 24.5742897,20.1396208 25.7055607,20.849184 C26.3449924,21.2503107 27.0301426,21.1879462 27.5361807,20.8622089 C27.356645,21.4485182 27.0890747,22.1566733 26.7645845,22.508871 L26.7645845,22.508871 L28.2504324,22.8793345 C28.1292714,22.4160234 28.2254795,21.665143 28.3422145,21.0631757 C28.6361127,21.5882849 29.2117173,21.9649909 29.9646708,21.9110994 C31.2967298,21.8156388 33.260386,19.4340284 29.3660232,15.239861 Z M16.2883575,14.7187854 C14.9470442,14.6227966 14.2283173,15.4815718 14.0425193,16.5514772 C13.3155478,15.8161577 12.3385304,15.2730975 11.1993026,15.9876293 C9.84756045,16.8356634 9.1117816,20.4498292 15.5730582,22.6901334 C20.2263876,17.6785721 17.8799341,14.8329677 16.2883575,14.7187854 Z M8.69144444,11.8533364 L8.22895924,11.9686469 L8.03208866,14.4802361 L8.48838998,14.3664674 L8.5189299,13.8365037 L9.30916051,13.639477 L9.58492857,14.0930696 L10.0412299,13.9793009 L8.69144444,11.8533364 Z M8.64567437,12.4950617 L9.14679258,13.337388 L8.57911279,13.4821076 L8.63632985,12.4974439 L8.64567437,12.4950617 Z M26.0837947,9.8026732 L24.7308486,11.9278497 L25.1871499,12.0416184 L25.4629179,11.5880258 L26.2533547,11.7851038 L26.2836885,12.3150162 L26.7399898,12.4287849 L26.5462799,9.91798371 L26.0837947,9.8026732 Z M26.1281218,10.3979406 L26.1374663,10.4003229 L26.1931718,11.3846012 L25.625492,11.2398816 L26.1281218,10.3979406 Z" id="Combined-Shape" fill="url(#linearGradient-1)" fill-rule="nonzero"></path>
        </g>
    </g>
</svg>