<?xml version="1.0" encoding="UTF-8"?>
<svg width="26px" height="26px" viewBox="0 0 26 26" version="1.1" xmlns="http://www.w3.org/2000/svg" xmlns:xlink="http://www.w3.org/1999/xlink">
    <!-- Generator: Sketch 59.1 (86144) - https://sketch.com -->
    <title>navigation tabs fiahing focused icon</title>
    <desc>Created with Sketch.</desc>
    <g id="Page-1" stroke="none" stroke-width="1" fill="none" fill-rule="evenodd">
        <path d="M15.5608032,18.9026489 C16.4740723,18.8518677 17.257373,19.5472534 17.314978,20.4600464 C17.2918091,21.4399658 16.705603,22.3187988 15.8096313,22.7166382 L15.8096313,22.7166382 L9.68985595,25.6713135 C9.29027101,25.873645 8.80515139,25.7893799 8.49729002,25.4637451 C8.26369627,25.2312622 8.22148438,24.8683349 8.39525148,24.5882446 L8.39525148,24.5882446 L9.92297361,21.9769775 C11.1269653,20.028247 13.2704102,18.8594849 15.5608032,18.9026489 Z M7.16380616,0.5 L8.75357665,1.51197509 C8.76944579,1.52117917 8.78468017,1.52958984 8.80007326,1.53752439 C8.93464358,1.60433347 9.0684204,1.66225582 9.20235595,1.72319332 C10.2474976,4.84211424 9.4634033,6.83273924 8.46904297,9.33942869 C7.48023681,11.8331055 6.24958498,14.9359985 6.68931884,20.008728 C6.72470703,20.4708374 6.81833498,20.9265991 6.96782227,21.3653808 C6.44541016,21.452185 5.90887452,21.3517334 5.45358889,21.0811645 C5.07987062,20.7882202 4.85833741,20.186145 4.77661133,19.2400268 C4.35512695,14.3862915 5.49167483,11.522229 6.49444579,8.99506832 C7.54022218,6.35983885 8.44365234,4.08309323 7.16380616,0.5 L7.16380616,0.5 Z M10.3087524,2.18641354 C10.7630859,2.35684813 11.2158325,2.50808103 11.66604,2.64423828 C12.4896484,5.5017944 11.7395142,7.40688473 10.7906983,9.79804688 C9.80141602,12.2909302 8.57076415,15.3928711 9.01224366,20.4671875 C9.03303221,20.692688 9.06048585,20.8997803 9.09428711,21.0919556 L9.09428711,21.0919556 L8.89893798,21.1221069 C8.55172118,21.1749511 8.22957765,21.2255737 7.9240967,21.2677856 C7.74541016,20.8426513 7.64130859,20.3900635 7.61639405,19.929541 C7.19490968,15.075647 8.33114015,12.2109497 9.33391111,9.68347166 C10.278125,7.29960938 11.1006226,5.2080566 10.3087524,2.18641354 Z M12.7011841,2.933374 C13.3130981,3.09539792 13.9204102,3.24155269 14.520105,3.38421628 C15.1012329,3.5224365 15.6739502,3.65891111 16.2349243,3.80839844 C17.0044189,6.34016111 16.3494995,8.03276363 15.445752,10.3453735 C14.3636352,12.8415893 13.7295044,15.5091919 13.5727173,18.225354 C12.1736938,18.5774902 10.9086059,19.3320678 9.93408203,20.3956177 L9.93408203,20.3956177 L9.93408203,20.383081 C9.51259766,15.5296631 10.6489868,12.665918 11.6515991,10.1387573 C12.5713745,7.82598876 13.3691162,5.7993408 12.7011841,2.933374 Z M19.7451782,5.16520994 C20.0922363,5.36135252 20.4254883,5.58114011 20.742395,5.82314453 C21.4380981,6.36475829 22.0752441,7.70268551 22.7487305,9.11900634 C23.5912231,10.8904785 24.5470215,12.8982422 26,14.2623535 C25.9155762,14.3956543 25.8278198,14.524353 25.7405395,14.6532104 C25.717688,14.6467041 25.6943603,14.642102 25.6710327,14.6394043 L25.6710327,14.6394043 L24.7423706,14.6394043 C24.486084,14.6394043 24.2781983,14.8471313 24.2781983,15.1035766 C24.2781983,15.3598633 24.486084,15.567749 24.7423706,15.567749 L24.7423706,15.567749 L25.0673706,15.567749 C23.3328735,17.7792724 20.9247314,19.3655517 18.2077759,20.0860107 C18.0722534,19.3273071 17.5936401,18.674292 16.9112671,18.3164428 C17.1610474,16.1360229 17.7369385,14.0052734 18.619104,11.9956055 C19.4965088,9.78233642 20.2637817,7.83598629 19.7451782,5.16520994 Z M1.54121094,4.42666016 C3.32601319,4.42666016 4.95736085,5.98374019 5.73114015,8.40362548 L5.73114015,8.40362548 L5.63465577,8.65150143 C4.77026367,10.829541 3.72147218,13.4731811 3.76479492,17.4891846 C2.73361814,18.4229248 1.22716063,18.6085938 0,17.9533569 C1.54581298,16.4960938 2.46955564,14.0441528 2.46955564,11.3898803 C2.46955564,8.7356079 1.54581298,6.28366697 0.00936280312,4.82227782 C0.479248047,4.56519774 1.00546875,4.4293579 1.54121094,4.42666016 Z M17.278003,4.11054687 C17.7477295,4.25622557 18.2098389,4.42539062 18.6627441,4.61740721 C19.4328735,7.40974119 18.6924194,9.29039306 17.7561401,11.6526733 C16.871753,13.6775757 16.2836426,15.8195923 16.0102173,18.0123901 C15.8616821,17.987793 15.7112427,17.9750977 15.5608032,17.9743042 C15.2110474,17.9746216 14.8616089,17.9979492 14.5150269,18.0439697 C14.6868897,15.5053833 15.2943603,13.0156738 16.3110962,10.6833862 C17.1480347,8.539624 17.8772217,6.65770261 17.278003,4.11054687 Z M21.028833,11.8542114 C20.2596558,11.8542114 19.6361572,12.4775513 19.6361572,13.2467285 C19.6361572,14.015747 20.2596558,14.6394043 21.028833,14.6394043 C21.7978516,14.6394043 22.4215088,14.015747 22.4215088,13.2467285 C22.4215088,12.4775513 21.7978516,11.8542114 21.028833,11.8542114 Z M21.0269287,12.7825561 C21.2832153,12.7825561 21.4911011,12.9904419 21.4911011,13.2467285 C21.4911011,13.5031738 21.2832153,13.7109009 21.0269287,13.7109009 C20.7704834,13.7109009 20.5627563,13.5031738 20.5627563,13.2467285 C20.5627563,12.9904419 20.7704834,12.7825561 21.0269287,12.7825561 Z" id="Combined-Shape" fill="#FFDD00" fill-rule="nonzero"></path>
    </g>
</svg>