<?xml version="1.0" encoding="UTF-8"?>
<svg width="26px" height="26px" viewBox="0 0 26 26" version="1.1" xmlns="http://www.w3.org/2000/svg" xmlns:xlink="http://www.w3.org/1999/xlink">
    <!-- Generator: Sketch 59.1 (86144) - https://sketch.com -->
    <title>Navigation Tabs home normal icon</title>
    <desc>Created with Sketch.</desc>
    <defs>
        <linearGradient x1="50%" y1="100%" x2="50%" y2="0.122337342%" id="linearGradient-1">
            <stop stop-color="#CCCCCC" offset="0%"></stop>
            <stop stop-color="#F0F0F0" offset="64%"></stop>
            <stop stop-color="#FFFFFF" offset="100%"></stop>
            <stop stop-color="#FBFBFA" offset="100%"></stop>
            <stop stop-color="#F0EEEB" offset="100%"></stop>
        </linearGradient>
    </defs>
    <g id="Page-1" stroke="none" stroke-width="1" fill="none" fill-rule="evenodd" opacity="0.9">
        <path d="M13.0000438,5.17679812 L22.2731626,12.8212227 C22.2835559,12.8422916 22.2894303,12.8747141 22.2894303,12.9176429 L22.2894303,12.9176429 L22.2894303,20.6584312 C22.2894303,20.9379765 22.1869097,21.1803544 21.9826027,21.3840966 C21.7786347,21.5886295 21.5364261,21.6910936 21.2569374,21.6910936 L21.2569374,21.6910936 L15.0645214,21.6910936 L15.0645214,15.4980563 L10.9356227,15.4980563 L10.9356227,21.6908677 L4.74315022,21.6908677 C4.46360497,21.6908677 4.22173534,21.5881776 4.01748486,21.3840966 C3.81317789,21.1801285 3.71099616,20.93792 3.71099616,20.6584312 L3.71099616,20.6584312 L3.71099616,12.9176429 C3.71099616,12.9065718 3.71382042,12.8909819 3.71913003,12.8695175 L3.72523043,12.8413032 L3.72523043,12.8413032 L3.7272639,12.8212227 L13.0000438,5.17679812 Z M13.0003827,1 C13.4735027,1 13.8821167,1.13974438 14.2257726,1.41928964 L14.2257726,1.41928964 L18.1606446,4.70927012 L18.1606446,1.56456957 C18.1606446,1.41420597 18.2089395,1.2904469 18.3055857,1.19363127 C18.4024578,1.0969286 18.5261039,1.04857727 18.6766934,1.04857727 L18.6766934,1.04857727 L21.7729862,1.04857727 C21.9237451,1.04857727 22.0474477,1.0969286 22.1436985,1.19363127 C22.2407401,1.2904469 22.2890914,1.41414949 22.2890914,1.56456957 L22.2890914,1.56456957 L22.2890914,8.14436107 L25.8206591,11.079445 C25.9279245,11.165472 25.9870645,11.2810407 25.9980791,11.4258123 C26.0092632,11.5710357 25.9715876,11.6975061 25.8856171,11.8051669 L25.8856171,11.8051669 L24.8856596,12.9984167 C24.7990678,13.0948935 24.6865493,13.1544289 24.5469743,13.1756673 L24.5469743,13.1756673 L24.49851,13.1756673 C24.3587092,13.1756673 24.2460212,13.1382176 24.1598248,13.0632053 L24.1598248,13.0632053 L13.0000438,3.75777692 L1.84037579,13.0632617 C1.71130711,13.1492322 1.58223843,13.1869643 1.45316974,13.1761192 C1.31336887,13.1544853 1.20062442,13.0953453 1.11448449,12.9986427 L1.11448449,12.9986427 L0.11463996,11.8052234 C0.0285000296,11.6977885 -0.00906262841,11.5710922 0.00183901519,11.4260382 C0.012797144,11.2808713 0.0717112076,11.1653025 0.179202543,11.079445 L0.179202543,11.079445 L11.7747668,1.41928964 C12.1187617,1.13974438 12.5273192,1 13.0003827,1 Z" id="Combined-Shape" fill="url(#linearGradient-1)" fill-rule="nonzero"></path>
    </g>
</svg>