<?xml version="1.0" encoding="UTF-8"?>
<svg width="26px" height="26px" viewBox="0 0 26 26" version="1.1" xmlns="http://www.w3.org/2000/svg" xmlns:xlink="http://www.w3.org/1999/xlink">
    <!-- Generator: Sketch 59.1 (86144) - https://sketch.com -->
    <title>navigation tabs casino normal icon</title>
    <desc>Created with Sketch.</desc>
    <defs>
        <linearGradient x1="50%" y1="100%" x2="50%" y2="0.122337342%" id="linearGradient-1">
            <stop stop-color="#CCCCCC" offset="0%"></stop>
            <stop stop-color="#F0F0F0" offset="64%"></stop>
            <stop stop-color="#FFFFFF" offset="100%"></stop>
            <stop stop-color="#FBFBFA" offset="100%"></stop>
            <stop stop-color="#F0EEEB" offset="100%"></stop>
        </linearGradient>
    </defs>
    <g id="Page-1" stroke="none" stroke-width="1" fill="none" fill-rule="evenodd" opacity="0.9">
        <path d="M10.8493817,3.00008729 C11.3767147,3.00008729 11.8755904,3.24206166 12.2048571,3.64395558 C12.1698529,3.73735839 12.1387768,3.83285621 12.1125018,3.93062363 L12.1125018,3.93062363 L9.38802065,14.0995701 L8.29293825,13.287053 L7.01270881,16.2233054 L8.52277898,17.3436153 C8.19962274,18.8261011 8.99066592,20.3194984 10.363338,20.9026112 L10.363338,20.9026112 L5.75212014,22.138147 C5.6022392,22.1783015 5.45148533,22.1975058 5.30300106,22.1975058 C4.53238429,22.1975058 3.8223484,21.6813462 3.6138943,20.903746 L3.6138943,20.903746 L0.0593502532,7.63758009 C-0.189258328,6.71009899 0.366270117,5.74787554 1.29375122,5.49935425 L1.29375122,5.49935425 L10.4001753,3.05944608 C10.5500563,3.01929161 10.7008101,3.00008729 10.8493817,3.00008729 Z M15.1507117,3 C15.2992833,3 15.4499498,3.01920431 15.5998308,3.05935879 L15.5998308,3.05935879 L24.7061676,5.49935425 C25.6336487,5.74787554 26.1892644,6.71009899 25.9406558,7.63758009 L25.9406558,7.63758009 L22.3861118,20.903746 C22.1776577,21.6813462 21.4675345,22.1975058 20.697005,22.1975058 C20.5484335,22.1975058 20.3977669,22.1783015 20.247886,22.138147 L20.247886,22.138147 L11.1415492,19.6981515 C10.2140681,19.4495429 9.65845231,18.4874068 9.90706089,17.5599257 L9.90706089,17.5599257 L13.4616049,4.29375976 C13.670059,3.5161596 14.3801822,3 15.1507117,3 Z M16.0873585,14.2541648 C15.2881098,14.2910022 14.091681,15.6628013 16.3922706,18.1851134 C19.6489732,17.1613489 19.3042558,15.3740382 18.6319302,14.9406318 C18.0653156,14.5750514 17.5418234,14.7696261 17.2017325,15.1833918 C17.0595333,14.6922851 16.7609062,14.2233506 16.0873585,14.2541648 Z M6.59841937,6.96307219 L5.31836451,9.8993246 L7.84032748,11.7706978 L9.12038234,8.83435806 L6.59841937,6.96307219 Z M18.233755,6.74789578 L18.0950823,6.74702365 C17.2958336,6.78386102 16.0994048,8.15566013 18.3999944,10.6779723 C21.656697,9.65420771 21.3119796,7.86689707 20.639654,7.43349061 C20.0730394,7.06791029 19.5495472,7.26248491 19.2094563,7.6762506 C19.0672571,7.1851439 18.76863,6.71620946 18.0950823,6.74702365 Z" id="Combined-Shape" fill="url(#linearGradient-1)" fill-rule="nonzero"></path>
    </g>
</svg>