<?xml version="1.0" encoding="UTF-8"?>
<svg width="26px" height="26px" viewBox="0 0 26 26" version="1.1" xmlns="http://www.w3.org/2000/svg" xmlns:xlink="http://www.w3.org/1999/xlink">
    <!-- Generator: Sketch 59.1 (86144) - https://sketch.com -->
    <title>navigation tabs lottery focused iocn</title>
    <desc>Created with Sketch.</desc>
    <g id="Page-1" stroke="none" stroke-width="1" fill="none" fill-rule="evenodd">
        <path d="M26,10.0901273 C26,8.58590909 24.7762273,7.36213636 23.2720091,7.36213636 C21.7677909,7.36213636 20.5440182,8.58590909 20.5440182,10.0901273 C20.5440182,10.7744 20.7978727,11.4000545 21.2154091,11.8794 L18.3953545,14.4664 L14.7987273,7.03359091 L16.9008273,4.56453636 L13.0147727,9.09494702e-13 L9.12883636,4.56465455 L11.1373364,6.9238 L7.56635455,14.4240909 L4.78589091,11.8779818 C5.20283636,11.3987545 5.4561,10.7736909 5.4561,10.0901273 C5.4561,8.58590909 4.23232727,7.36213636 2.72810909,7.36213636 C1.22377273,7.36213636 0,8.58590909 0,10.0901273 C0,11.4839636 1.05122727,12.6363545 2.4024,12.7980273 L3.2383,22.8121636 L22.7618182,22.8121636 L23.5977182,12.7980273 C24.9487727,12.6363545 26,11.4839636 26,10.0901273 Z" id="Path" fill="#FFDD00" fill-rule="nonzero"></path>
    </g>
</svg>