<?xml version="1.0" encoding="UTF-8"?>
<svg width="26px" height="26px" viewBox="0 0 26 26" version="1.1" xmlns="http://www.w3.org/2000/svg" xmlns:xlink="http://www.w3.org/1999/xlink">
    <!-- Generator: Sketch 59.1 (86144) - https://sketch.com -->
    <title>navigation tabs pro focused icon</title>
    <desc>Created with Sketch.</desc>
    <g id="Page-1" stroke="none" stroke-width="1" fill="none" fill-rule="evenodd">
        <path d="M18.6080984,6.98855845 L12.9869795,24.1428571 L7.21802969,6.98855845 L18.6080984,6.98855845 Z M26,6.98855845 L16.3438669,20.8821827 L20.897308,6.98855845 L26,6.98855845 Z M4.92306277,6.98855845 L9.53779749,20.7125744 L2.48689958e-13,6.98855845 L4.92306277,6.98855845 Z M12.9901682,1.08278243 L16.6976337,4.83820588 L9.18518216,4.83820588 L12.9901682,1.08278243 Z M19.4048266,1.89359639e-12 L25.1239976,4.83820588 L19.7389299,4.83820588 L14.9636095,1.89359639e-12 L19.4048266,1.89359639e-12 Z M11.0065409,1.89359639e-12 L6.10482459,4.83820588 L0.705850691,4.83820588 L5.98436318,1.89359639e-12 L11.0065409,1.89359639e-12 Z" id="Combined-Shape" fill="#FFDD00" fill-rule="nonzero"></path>
    </g>
</svg>