<?xml version="1.0" encoding="UTF-8"?>
<svg width="26px" height="26px" viewBox="0 0 26 26" version="1.1" xmlns="http://www.w3.org/2000/svg" xmlns:xlink="http://www.w3.org/1999/xlink">
    <!-- Generator: Sketch 59.1 (86144) - https://sketch.com -->
    <title>navigation tabs slots normal icon</title>
    <desc>Created with Sketch.</desc>
    <defs>
        <linearGradient x1="50%" y1="100%" x2="50%" y2="0.122337342%" id="linearGradient-1">
            <stop stop-color="#CCCCCC" offset="0%"></stop>
            <stop stop-color="#F0F0F0" offset="64%"></stop>
            <stop stop-color="#FFFFFF" offset="100%"></stop>
            <stop stop-color="#FBFBFA" offset="100%"></stop>
            <stop stop-color="#F0EEEB" offset="100%"></stop>
        </linearGradient>
    </defs>
    <g id="Page-1" stroke="none" stroke-width="1" fill="none" fill-rule="evenodd" fill-opacity="0.9">
        <path d="M6.625,7.03125 C7.69891356,7.03125 8.64483644,6.73809816 9.42596434,6.36401367 C8.63293459,7.85614012 8.15777589,9.583374 8.06347656,11.364624 C4.89263917,11.7050171 2.40625,14.3651733 2.40625,17.625 C2.40625,21.1144409 5.24493409,24 8.734375,24 C9.80938722,24 10.8391724,23.6971435 11.7627564,23.1904907 C10.329956,21.7858887 9.4375,19.7852783 9.4375,17.625 C9.4375,15.4647217 10.329956,13.5109863 11.7627564,12.1063843 C11.0515747,11.7161865 10.2766724,11.4508667 9.4675293,11.3477783 C9.77331541,6.37792969 13.5266113,2.27856445 18.3659058,1.53057863 C17.1334229,3.26092528 16.46875,5.32562255 16.46875,7.4934082 L16.46875,11.3679199 C13.3132935,11.7229614 10.84375,14.3761597 10.84375,17.625 C10.84375,21.1144409 13.6824341,24 17.171875,24 C20.6613159,24 23.5,21.1144409 23.5,17.625 C23.5,14.3761597 21.0304565,11.7229614 17.875,11.3679199 L17.875,7.4934082 C17.875,5.11614989 18.8005982,2.88116456 20.4815064,1.20025636 L21.6817627,0 L19.984375,0 C16.6818848,0 13.6888428,1.34674073 11.5232544,3.51910402 C10.9547119,2.97326662 9.13171384,1.40625 6.625,1.40625 C3.65869141,1.40625 1.6289673,3.61651612 1.53082277,3.71063231 L1,4.21875 L1.53082277,4.72686769 C1.6289673,4.82098387 3.65869141,7.03125 6.625,7.03125 Z M17.171875,15.515625 C16.0087891,15.515625 15.0625,16.4619141 15.0625,17.625 L13.65625,17.625 C13.65625,15.6866455 15.2335205,14.109375 17.171875,14.109375 L17.171875,15.515625 Z M8.734375,15.515625 C7.57128906,15.515625 6.625,16.4619141 6.625,17.625 L5.21875,17.625 C5.21875,15.6866455 6.79602053,14.109375 8.734375,14.109375 L8.734375,15.515625 Z" id="Shape" fill="url(#linearGradient-1)" fill-rule="nonzero"></path>
    </g>
</svg>