<?xml version="1.0" encoding="UTF-8"?>
<svg width="26px" height="26px" viewBox="0 0 26 26" version="1.1" xmlns="http://www.w3.org/2000/svg" xmlns:xlink="http://www.w3.org/1999/xlink">
    <!-- Generator: Sketch 59.1 (86144) - https://sketch.com -->
    <title>navigation tabs sports normal icon</title>
    <desc>Created with Sketch.</desc>
    <defs>
        <linearGradient x1="50%" y1="100%" x2="50%" y2="0.122337342%" id="linearGradient-1">
            <stop stop-color="#CCCCCC" offset="0%"></stop>
            <stop stop-color="#F0F0F0" offset="64%"></stop>
            <stop stop-color="#FFFFFF" offset="100%"></stop>
            <stop stop-color="#FBFBFA" offset="100%"></stop>
            <stop stop-color="#F0EEEB" offset="100%"></stop>
        </linearGradient>
    </defs>
    <g id="Page-1" stroke="none" stroke-width="1" fill="none" fill-rule="evenodd" opacity="0.9">
        <path d="M1.59174827,4.57118109 C1.62648179,4.69320335 5.06408433,16.8790526 5.72450305,25.6419635 L5.72450305,25.6419635 L4.07441958,25.7663405 C3.42663123,17.1714779 0.0341983438,5.14340127 -1.27897692e-13,5.02287753 L-1.27897692e-13,5.02287753 Z M23.4119507,0.4 C24.274616,4.2991999 25.1372812,8.19834628 26,12.0974391 C21.4283397,14.2298316 16.607176,15.4025298 11.4814918,15.4673407 C11.4390517,14.9255726 11.3966115,14.3836974 11.3542783,13.8418223 C9.14845836,14.3459669 7.00728881,15.0907308 4.91974484,16.0607542 C4.05697254,12.1616614 3.19452135,8.26240796 2.33174905,4.3633151 C6.90340934,2.2309226 11.724573,1.05822446 16.8503107,0.993306478 C16.8926439,1.53518164 16.934977,2.07694977 16.9773102,2.61882494 C19.1831301,2.1145733 21.3242997,1.37002345 23.4119507,0.4 Z M15.2550302,13.2842662 C15.2550302,13.2842662 13.5042249,13.4109445 12.4389384,13.6141544 C12.4582586,13.8320284 12.4776323,14.0500629 12.4969525,14.2679904 C13.4523119,14.2238911 14.3969676,14.1490187 15.3431217,14.043052 C15.3136865,13.7901769 15.2843584,13.5371948 15.2550302,13.2842662 Z M10.6044301,9.63927931 C9.56643812,9.8809155 8.5427891,10.1759097 7.53722935,10.5214788 C7.71822903,11.5183686 7.89949631,12.5152583 8.08054951,13.5121481 C9.05517555,13.177015 10.0473557,12.8909049 11.0535041,12.6570289 C10.9038128,11.6511481 10.7541214,10.6451602 10.6044301,9.63927931 Z M21.4431643,9.5104602 C20.3953785,9.8575279 19.3412239,10.1741435 18.2634141,10.425199 C18.4133195,11.4311869 18.5627968,12.4370678 18.7124881,13.4430557 C19.819519,13.1719843 20.906534,12.8588473 21.9864845,12.5011294 C21.8055383,11.5041327 21.6244316,10.5073499 21.4431643,9.5104602 Z M16.4264974,8.86625759 C15.5324168,8.89692371 14.6429387,8.96746114 13.7606322,9.07690655 C13.8779983,10.0886209 13.9950969,11.1003888 14.112356,12.1119962 C14.9676357,12.005976 15.8296587,11.9377398 16.6962844,11.907823 C16.6062662,10.8939143 16.5168367,9.88016624 16.4264974,8.86625759 Z M6.86803358,6.95735849 C5.98187368,7.27397414 5.11102008,7.61606462 4.24594649,7.98684103 C4.49325564,9.16499805 4.7408859,10.3431016 4.98851616,11.5213656 C5.82276308,11.1635942 6.66262945,10.8334919 7.51758804,10.5282757 C7.30099853,9.33786292 7.08451606,8.14771774 6.86803358,6.95735849 Z M17.707196,6.82634512 C17.5762361,6.85669013 17.4447411,6.8852155 17.313139,6.91395496 L17.313139,6.91395496 L17.5991421,10.5711976 C17.814126,10.5261885 18.0287353,10.4796809 18.2425954,10.4299621 C18.0641646,9.22863159 17.8856268,8.02735456 17.707196,6.82634512 Z M13.3193183,5.45520025 C12.2306443,5.59140492 11.1525134,5.78385757 10.0890466,6.03073858 C10.2674774,7.23196209 10.4461223,8.43323913 10.624339,9.63446264 C11.6501823,9.39651924 12.6900474,9.21048881 13.7401346,9.07942192 C13.5998625,7.87134803 13.4595904,6.66332766 13.3193183,5.45520025 Z M23.3432864,4.93954917 C22.5089324,5.29716002 21.6690661,5.62726234 20.8142145,5.93253206 C21.030804,7.12273076 21.2472865,8.31309002 21.463769,9.50334223 C22.3499289,9.18683362 23.2206754,8.8446361 24.085749,8.47396673 L24.085749,8.47396673 Z M9.61931443,3.0177521 C8.5121765,3.28871644 7.4250545,3.60190691 6.34499694,3.95967831 C6.5262107,4.95646103 6.70726391,5.95335077 6.88853118,6.95024052 C7.93610299,6.60327986 8.99057868,6.28650365 10.0682814,6.03560876 C9.918376,5.0297279 9.76900577,4.02363296 9.61931443,3.0177521 Z M20.251039,2.94871319 C19.2764129,3.28363218 18.2843399,3.56910004 17.2781914,3.80383234 C17.4278827,4.8097132 17.57736,5.8157011 17.7271584,6.82158197 C18.7652574,6.57983874 19.7887994,6.28495162 20.7943591,5.9392754 C20.6133595,4.94238565 20.4323063,3.9454959 20.251039,2.94871319 Z M15.8346895,2.19287092 C14.8793836,2.23686316 13.9346745,2.31168207 12.9887343,2.41759525 C13.1058864,3.42920259 13.223199,4.4409705 13.3404582,5.45268488 C14.2592108,5.34982226 15.1766791,5.27730464 16.1044764,5.2344363 L16.1044764,5.2344363 Z" id="Combined-Shape" fill="url(#linearGradient-1)" fill-rule="nonzero"></path>
    </g>
</svg>