<?xml version="1.0" encoding="UTF-8"?>
<svg width="30px" height="30px" viewBox="0 0 30 30" version="1.1" xmlns="http://www.w3.org/2000/svg" xmlns:xlink="http://www.w3.org/1999/xlink">
    <!-- Generator: Sketch 59.1 (86144) - https://sketch.com -->
    <title>w-wallet deposit-normal</title>
    <desc>Created with Sketch.</desc>
    <g id="Welcome" stroke="none" stroke-width="1" fill="none" fill-rule="evenodd">
        <g id="-" transform="translate(-6.000000, -2.000000)">
            <rect id="Rectangle" x="6" y="2" width="30" height="30"></rect>
            <path d="M25.2906852,3.42391947 L25.4071309,3.53065003 L34.4694222,12.5931237 C34.94338,13.067091 35.117376,13.766714 34.919818,14.4101496 C34.3298629,16.3187066 33.3248548,17.9644518 31.8486075,19.4407287 C30.1122725,21.1770987 27.9916964,22.4095951 25.9418061,23.6004041 C24.0070069,24.7223384 22.1809552,25.7826478 20.7790188,27.1846124 C19.727793,28.2340469 19.0182156,29.3913248 18.6067876,30.7226021 C18.5179771,31.0089763 18.3630119,31.2636318 18.1572979,31.46935 C17.9271157,31.6995368 17.6362162,31.8653801 17.3108799,31.9469423 C16.7451664,32.0865044 16.1505165,31.9465962 15.7091152,31.5760805 L15.5926695,31.46935 L6.53037829,22.4068763 C6.05551423,21.9301902 5.88242447,21.233286 6.08088865,20.5889441 C6.66993758,18.6803872 7.67494567,17.0364545 9.15119291,15.558365 C10.8884341,13.8219951 13.0081041,12.5894987 15.0598068,11.4005021 C16.9927935,10.2776616 18.8197514,9.21553973 20.2225941,7.81357506 C21.2729137,6.76414062 21.9824911,5.60686273 22.3930129,4.27558536 C22.4818233,3.99102369 22.6367885,3.73636818 22.8425025,3.53065003 C23.0726847,3.3004632 23.3635843,3.13280743 23.6889205,3.05305767 C24.254634,2.91349557 24.849284,3.0534038 25.2906852,3.42391947 Z M24.1248167,4.8120838 C21.551126,13.1504658 10.3881957,12.7861543 7.8126925,21.1245363 C10.8141234,24.1251213 13.8735529,27.1855187 16.8749837,30.18701 C19.4495807,21.848628 30.612511,22.2111269 33.1889204,13.8745574 C30.1865833,10.8730662 27.1262476,7.81266882 24.1248167,4.8120838 Z M19.3264507,23.1109464 C19.4892595,22.9542601 19.7289274,22.9621437 19.8785132,23.1434661 C20.0404956,23.3356285 20.0404956,23.6499864 19.8785132,23.8421487 C19.8652901,23.8579159 19.8512406,23.8687558 19.8363647,23.8825521 L19.8363647,23.8825521 C19.3148805,24.3585235 18.8851312,24.7852224 18.4214979,25.3380587 C18.0024924,25.8366954 17.6239825,26.3619391 17.2967119,26.8950665 L17.2967119,26.8950665 L16.7686161,27.7573334 C16.7520873,27.7928096 16.7322527,27.8253294 16.7074595,27.8558782 C16.5454771,28.0480406 16.2818425,28.0480406 16.1206865,27.8558782 C15.9801915,27.6883521 15.9628363,27.4301647 16.0661414,27.2380024 L16.0661414,27.2380024 L16.0644885,27.2360315 L16.6297741,26.3156231 C16.9826643,25.7401215 17.3884468,25.1764453 17.8372042,24.641347 C18.3041433,24.082598 18.8082722,23.5839614 19.3247978,23.1109464 L19.3247978,23.1109464 Z M20.6764479,13.0321502 C20.9583902,13.0802384 21.1931882,13.2111453 21.3882368,13.4266519 C21.540763,13.5931797 21.6091687,13.7641602 21.5999247,13.9395932 C21.5897563,14.1132452 21.5158042,14.25751 21.381766,14.3688253 C21.255123,14.4712355 21.1109164,14.5059659 20.9445242,14.4747976 C20.7799808,14.4436293 20.6015714,14.4035557 20.4065227,14.356358 C20.2151717,14.3100508 20.0136522,14.2886783 19.8038131,14.2975835 C19.5948985,14.3047077 19.3776642,14.4035557 19.1539591,14.5985803 C19.6503625,15.1026164 20.146766,15.6458355 20.6431694,16.1952882 C20.9574658,16.0483519 21.2699135,15.9218976 21.5805123,15.8052391 C21.8911111,15.6903616 22.2017099,15.6235724 22.5049135,15.6013093 C22.8118147,15.5799368 23.1150183,15.6128861 23.4182219,15.6948142 C23.7232743,15.7767424 24.0264779,15.9423797 24.3278327,16.1854925 C24.591287,16.3965464 24.7752428,16.6156151 24.8787758,16.8711953 C24.9832331,17.1232133 25.0211336,17.4010565 24.9887795,17.7091775 C24.9564255,18.0155174 24.8593634,18.3459015 24.6948199,18.6887529 C24.5302765,19.0298233 24.3084202,19.3744557 24.0320243,19.7012777 C24.1937945,19.8401993 24.3564891,19.9719967 24.5191837,20.0975605 C24.5857406,20.1492108 24.6254898,20.2213432 24.6347339,20.3148481 C24.6449023,20.4074625 24.6162458,20.4956243 24.5478401,20.5757714 C24.4803589,20.6541374 24.3953139,20.697773 24.2982518,20.7013351 C24.1974921,20.7084593 24.114296,20.6799626 24.0458903,20.6229691 C23.8841201,20.4840475 23.7214255,20.3397827 23.5605797,20.1883938 C23.2259464,20.5116537 22.8866912,20.7289413 22.5437383,20.8491619 C22.2026343,20.9711636 21.8790939,21.0156898 21.5721927,20.9952077 C21.2652914,20.9756162 20.9861223,20.9043744 20.7393072,20.7912779 C20.492492,20.6781815 20.2881994,20.5348073 20.1310512,20.3647174 C19.9757518,20.1946275 19.8962533,20.0263186 19.8962533,19.8606813 C19.8962533,19.6941535 19.9720542,19.5463267 20.123656,19.4189818 C20.2715601,19.2969802 20.4055983,19.2382057 20.5313169,19.2399867 C20.6570355,19.2417678 20.7799808,19.2738266 20.8992286,19.3308201 C21.0203251,19.3878135 21.1414217,19.4572743 21.264367,19.5392025 C21.3873124,19.6193495 21.5213506,19.6816862 21.6655572,19.7253218 C21.8097638,19.7671764 21.9687608,19.7707385 22.1471702,19.734227 C22.3255796,19.6994966 22.5280235,19.5917433 22.7591238,19.403843 C22.2128027,18.8437039 21.6655572,18.2408198 21.1201605,17.633483 C20.4333304,17.9888017 19.7945691,18.1588917 19.2020279,18.1936221 C18.607638,18.2265714 18.0955197,18.0787446 17.6601267,17.73055 C17.3929748,17.5168245 17.2099433,17.2906316 17.1110324,17.0243652 C17.0121215,16.7598799 16.9779186,16.4749125 17.0139703,16.1632294 C17.0481731,15.8542179 17.1406132,15.5354106 17.2959126,15.2139318 C17.4493632,14.8933434 17.6444119,14.5896751 17.8810586,14.3145034 C17.8209725,14.2637436 17.7608865,14.2156554 17.7008004,14.1666766 C17.6323947,14.1105736 17.5926454,14.0375507 17.5834014,13.9422648 C17.5713842,13.8505409 17.6018894,13.7632696 17.6684463,13.6884657 C17.736852,13.6118807 17.8200481,13.5700261 17.9208079,13.5700261 C18.0206432,13.5682451 18.1038393,13.6003039 18.1703962,13.6590784 C18.2304823,13.7134003 18.2905684,13.7677222 18.3506544,13.8229347 C18.5078026,13.6733268 18.7194905,13.5201568 18.9829449,13.3705489 C19.2463992,13.2209411 19.524644,13.1149688 19.8167548,13.0508511 C20.1134875,12.9885145 20.3982031,12.9849524 20.6764479,13.0321502 Z M22.5465115,17.0377231 L22.5465115,17.0377231 C22.3967585,17.0626577 22.2470055,17.1027313 22.0972525,17.1632868 C21.9474995,17.2238424 21.8088394,17.2835074 21.67665,17.3405009 C22.1933903,17.9086547 22.7110549,18.46256 23.229644,18.9665961 C23.3414966,18.8517186 23.4367099,18.7199212 23.519906,18.5720944 C23.6049509,18.4224865 23.6594906,18.2746597 23.6862982,18.1259423 C23.7112571,17.9781155 23.7094082,17.8338507 23.6733566,17.691367 C23.6400782,17.5506644 23.5578065,17.420648 23.4274659,17.2950843 C23.2952765,17.1713015 23.1529187,17.0929355 23.0031657,17.0564241 L22.8514955,17.0311926 L22.8514955,17.0311926 L22.6994143,17.0249589 Z M18.6797413,15.0393892 C18.5503251,15.1756393 18.448641,15.3163419 18.3802353,15.4570446 C18.308132,15.5977472 18.2665339,15.7375593 18.2535923,15.8711378 C18.2388019,16.0064973 18.2517435,16.13028 18.289644,16.2433765 C18.3256956,16.3564729 18.3848573,16.4517589 18.4699022,16.5301249 C18.6695728,16.7162442 18.8978999,16.7999534 19.1595055,16.7892671 C19.421111,16.7785809 19.729861,16.6779517 20.0848311,16.4900514 C19.6161597,15.9806722 19.1484127,15.4882129 18.6797413,15.0393892 Z M24.3002938,7.14333998 C24.4606385,6.95222001 24.7202831,6.95222001 24.8806278,7.14333998 C25.0328332,7.32572858 25.0393447,7.61386377 24.9009761,7.80692405 L24.9009761,7.80692405 L24.902604,7.80886435 L24.345874,8.71886706 C23.9975108,9.28543592 23.5986838,9.83842264 23.1567183,10.3652153 C22.6968463,10.9133512 22.2011612,11.4061885 21.6924533,11.8718615 L21.6924533,11.8718615 C21.5272249,12.0474591 21.2757197,12.0435785 21.1202586,11.8563391 C20.9599138,11.6652191 20.9599138,11.3538003 21.1202586,11.1626803 C21.1487462,11.1267847 21.1821175,11.1015607 21.2154887,11.0792472 C21.6940811,10.6436489 22.155581,10.1867073 22.5812678,9.67931769 C22.9931178,9.1884207 23.3650851,8.67326991 23.6882164,8.14550715 L23.6882164,8.14550715 L24.2286677,7.26266869 C24.2482021,7.22095215 24.2701783,7.17923561 24.3002938,7.14333998 Z" id="Combined-Shape" fill="#F8F8F8" fill-rule="nonzero" opacity="0.6"></path>
        </g>
    </g>
</svg>