<?xml version="1.0" encoding="UTF-8"?>
<svg width="30px" height="30px" viewBox="0 0 30 30" version="1.1" xmlns="http://www.w3.org/2000/svg" xmlns:xlink="http://www.w3.org/1999/xlink">
    <!-- Generator: Sketch 59.1 (86144) - https://sketch.com -->
    <title>w-wallet history-normal</title>
    <desc>Created with Sketch.</desc>
    <g id="Welcome" stroke="none" stroke-width="1" fill="none" fill-rule="evenodd">
        <g id="Artboard" transform="translate(-5.000000, -2.000000)">
            <rect id="Rectangle" x="5" y="2" width="30" height="30"></rect>
            <path d="M22.2275709,4 C24.4765841,4.0006018 26.6855609,4.60547485 28.6311968,5.75341568 C34.7343431,9.35430898 36.813394,17.30823 33.2748205,23.5189059 C29.7363061,29.7296419 21.9201722,31.8453435 15.8170259,28.2444502 L15.8170259,28.2444502 L16.7679628,26.57962 C17.8327993,27.207482 18.9946219,27.6467386 20.2039322,27.8786738 C26.1034077,29.0103058 31.7873257,25.0607875 32.899295,19.0573729 C34.0112644,13.0539583 30.1302826,7.26984101 24.2308071,6.13826924 C18.3313315,5.00669747 12.6474135,8.95609538 11.5354442,14.9595702 L11.5354442,14.9595702 L14.462059,11.9852148 L15.7999942,13.3467359 L10.3999971,18.8419271 L5,13.3467359 L6.33793515,11.9852148 L9.57869037,15.2830999 C10.4267274,8.83110072 15.8309233,4.01047139 22.2275709,4 Z M13.5957447,24 C14.0273271,24.4869949 14.496875,24.9389622 15,25.3516484 L15,25.3516484 L13.6510638,27 C13.0601064,26.5146003 12.5081117,25.983738 12,25.4122652 L12,25.4122652 Z M12.0452522,21 C12.3146096,21.6270857 12.6339021,22.2315072 13,22.807564 L13,22.807564 L11.1227745,24 C10.6917192,23.3240406 10.3162324,22.6142937 10,21.8776418 L10,21.8776418 Z M22.7857143,8 L22.7857143,17.7902098 L26,20.4335664 L24.9285714,22 L21,18.7692308 L21,8 L22.7857143,8 Z" id="Combined-Shape" fill="#F8F8F8" fill-rule="nonzero" opacity="0.6"></path>
        </g>
    </g>
</svg>