<?xml version="1.0" encoding="UTF-8"?>
<svg width="30px" height="30px" viewBox="0 0 30 30" version="1.1" xmlns="http://www.w3.org/2000/svg" xmlns:xlink="http://www.w3.org/1999/xlink">
    <!-- Generator: Sketch 59.1 (86144) - https://sketch.com -->
    <title>w-wallet Change Password-normal</title>
    <desc>Created with Sketch.</desc>
    <g id="Welcome" stroke="none" stroke-width="1" fill="none" fill-rule="evenodd">
        <g id="Artboard" transform="translate(-5.000000, -3.000000)">
            <rect id="Rectangle" x="5" y="3" width="30" height="30"></rect>
            <path d="M24.9654869,6 C21.0865736,6 17.9309738,9.15558621 17.9309738,13.0344828 C17.9309738,14.3565517 18.3042168,15.5896552 18.9410472,16.6473103 L8.24238036,27.345931 C7.91920655,27.6691034 7.91920655,28.1929655 8.24238036,28.5161379 C8.40417416,28.677931 8.61562334,28.7586207 8.82748633,28.7586207 C9.03934931,28.7586207 9.25079849,28.677931 9.4125923,28.5161379 L10.8964608,27.0322759 L13.6217139,29.7575172 C13.7835077,29.9193103 13.9949569,30 14.2068199,30 C14.4186828,30 14.630132,29.9193103 14.7919258,29.7575172 C15.1150996,29.4343448 15.1150996,28.9104828 14.7919258,28.5873103 L12.0666727,25.862069 L12.9654352,24.9633103 L14.8630985,26.8609655 C15.0248923,27.0227586 15.2363415,27.1034483 15.4482045,27.1034483 C15.6600675,27.1034483 15.8715167,27.0227586 16.0333105,26.8609655 C16.3564843,26.5377931 16.3564843,26.013931 16.0333105,25.6907586 L14.1356471,23.7931034 L15.0344096,22.8943448 L17.7596628,25.6195862 C17.9214566,25.7813793 18.1329057,25.862069 18.3447687,25.862069 C18.5566317,25.862069 18.7680809,25.7813793 18.9298747,25.6195862 C19.2530485,25.2964138 19.2530485,24.7725517 18.9298747,24.4493793 L16.2046216,21.7241379 L19.9598102,17.9689655 C21.2363674,19.2637241 23.0078233,20.0689655 24.9654869,20.0689655 C28.8444002,20.0689655 32,16.9133793 32,13.0344828 C32,9.15558621 28.8444002,6 24.9654869,6 Z M24.9654869,18.4137931 C21.9994052,18.4137931 19.5861534,16.0005517 19.5861534,13.0344828 C19.5861534,10.0684138 21.9994052,7.65517241 24.9654869,7.65517241 C27.9315687,7.65517241 30.3448205,10.0684138 30.3448205,13.0344828 C30.3448205,16.0005517 27.9315687,18.4137931 24.9654869,18.4137931 Z" id="Shape" fill="#000000" fill-rule="nonzero"></path>
        </g>
    </g>
</svg>