<?xml version="1.0" encoding="UTF-8"?>
<svg width="30px" height="30px" viewBox="0 0 30 30" version="1.1" xmlns="http://www.w3.org/2000/svg" xmlns:xlink="http://www.w3.org/1999/xlink">
    <!-- Generator: Sketch 59.1 (86144) - https://sketch.com -->
    <title>w-wallet transfer-normal</title>
    <desc>Created with Sketch.</desc>
    <g id="Welcome" stroke="none" stroke-width="1" fill="none" fill-rule="evenodd">
        <g id="Artboard" transform="translate(-4.000000, -2.000000)">
            <rect id="Rectangle" x="4" y="2" width="30" height="30"></rect>
            <path d="M25.6228571,10.6 L31.5142857,12.1485714 L33,6.25714286 L31.8685714,5.96 L30.9028571,9.63428571 C28.4342857,5.65142857 24.0285714,3 19,3 C11.2685714,3 5,9.26857143 5,17 C5,24.7314286 11.2685714,31 19,31 C24.16,31 28.6628571,28.2114286 31.0914286,24.0571429 L30.08,23.5085714 C27.8457143,27.3028571 23.72,29.8514286 19,29.8514286 C11.9028571,29.8514286 6.14857143,24.0971429 6.14857143,17 C6.14857143,9.90285714 11.9028571,4.14857143 19,4.14857143 C23.76,4.14857143 27.92,6.73714286 30.1371429,10.5885714 L25.92,9.46857143 L25.6228571,10.6 Z" id="Path" stroke="#000000" stroke-width="0.5" fill="#000000" fill-rule="nonzero"></path>
            <path d="M19.195122,25 L19.195122,23.7604167 C20.3725055,23.6941288 21.27051,23.3494318 21.962306,22.7263258 C22.654102,22.1032197 23,21.2746212 23,20.313447 C23,19.2793561 22.7206208,18.5170455 22.1019956,18.0331439 C21.4767184,17.4829545 20.578714,17.0653409 19.2616408,16.7935606 L19.195122,16.7935606 L19.195122,13.6183712 C20.0931264,13.7575758 20.8580931,14.0293561 21.616408,14.5861742 L22.7272727,13.0681818 C21.616408,12.3058712 20.4390244,11.8948864 19.195122,11.8285985 L19.195122,11 L18.1574279,11 L18.1574279,11.8285985 C17.1197339,11.8948864 16.2150776,12.2395833 15.5232816,12.8626894 C14.8314856,13.4857955 14.4855876,14.3143939 14.4855876,15.2755682 C14.4855876,16.2367424 14.7649667,16.999053 15.383592,17.4829545 C15.9356984,17.9668561 16.9068736,18.3778409 18.1507761,18.65625 L18.1507761,21.8977273 C17.1796009,21.7585227 16.2084257,21.2746212 15.2439024,20.4460227 L14,21.8977273 C15.2439024,23.0047348 16.6341463,23.6212121 18.1574279,23.7604167 L18.1574279,25 L19.195122,25 L19.195122,25 Z M19.2616408,18.9943182 C19.9534368,19.1998106 20.3725055,19.405303 20.6452328,19.6174242 C20.8514412,19.8958333 20.9911308,20.1676136 20.9911308,20.5852273 C20.9911308,21.0028409 20.8514412,21.2746212 20.5055432,21.5530303 C20.1596452,21.8314394 19.7405765,21.9640152 19.2616408,22.0369318 L19.2616408,18.9943182 L19.2616408,18.9943182 Z M16.8403548,16.03125 C16.6341463,15.8257576 16.4944568,15.4810606 16.4944568,15.1363636 C16.4944568,14.7253788 16.6341463,14.4469697 16.9068736,14.1685606 C17.2527716,13.8901515 17.5986696,13.7575758 18.1507761,13.6846591 L18.1507761,16.6543561 C17.45898,16.4422348 17.0465632,16.2367424 16.8403548,16.03125 L16.8403548,16.03125 Z" id="Shape" fill="#000000" fill-rule="nonzero"></path>
        </g>
    </g>
</svg>