<?xml version="1.0" encoding="UTF-8"?>
<svg width="30px" height="30px" viewBox="0 0 30 30" version="1.1" xmlns="http://www.w3.org/2000/svg" xmlns:xlink="http://www.w3.org/1999/xlink">
    <!-- Generator: Sketch 59.1 (86144) - https://sketch.com -->
    <title>w-wallet withdrawal-normal</title>
    <desc>Created with Sketch.</desc>
    <g id="Welcome" stroke="none" stroke-width="1" fill="none" fill-rule="evenodd">
        <g id="Artboard" transform="translate(-6.000000, -2.000000)">
            <rect id="Rectangle" x="6" y="2" width="30" height="30"></rect>
            <path d="M9.75,5 L32.25,5 C34.2507876,5 35.8910498,6.57566827 35.9947912,8.55116679 L36,8.75000586 L36,13.7499941 C36,15.7507848 34.4242793,17.3910496 32.4488334,17.4947911 L32.25,17.5 L29.7499805,17.5 L29.7499805,28.7500176 C29.7499805,29.3980472 29.2588916,29.9296386 28.6279491,29.9935562 L28.5,30 L13.5,30 C12.853125,30 12.320525,29.5089104 12.2564768,28.8779669 L12.2500195,28.7500176 L12.2500195,17.5 L9.75,17.5 C7.74921245,17.5 6.10895023,15.9242769 6.00520885,13.9488279 L6,13.7499941 L6,8.75000586 C6,6.74921518 7.57572068,5.1089504 9.55116655,5.00520886 L9.75,5 L32.25,5 Z M28.5,11.4285815 L13.5,11.4285815 L13.5,28.5714654 L28.5,28.5714654 L28.5,11.4285815 Z M21.5386796,14.0002659 C21.8307326,14.0002659 22.0717922,14.23554 22.0795426,14.5300528 L22.0795426,14.5300528 L22.0795426,15.3559593 C22.94643,15.3995665 23.7715956,15.747109 24.4128518,16.3376684 C24.5102028,16.4498637 24.5642384,16.5932487 24.5673531,16.7428425 C24.5596026,17.1729245 24.2057637,17.5141853 23.7792736,17.5063696 C23.6880795,17.5250688 23.592322,17.5250688 23.5011279,17.5063696 C23.059137,17.233697 22.5801325,17.0295395 22.0794702,16.898645 L22.0794702,16.898645 L22.0794702,19.2204891 C23.4701987,19.5944735 25,20.1398187 25,21.9632118 C24.938214,23.3032739 24.0882761,24.5031648 22.0794702,24.690157 L22.0794702,24.690157 L22.0794702,25.4693156 C22.0717198,25.7638283 21.8306602,25.9991024 21.5386072,25.9991024 C21.2403974,26.0161947 20.9854305,25.7871293 20.9668874,25.4864078 L20.9668874,25.4864078 L20.9668874,24.690084 C19.9192053,24.6729187 18.9162873,24.2615359 18.1545012,23.5369411 C18.0556291,23.420071 18,23.2704772 18,23.1162086 C18,22.6970101 18.327618,22.3542154 18.7417219,22.3370501 C18.9039735,22.338584 19.0615894,22.3931478 19.1898696,22.4928526 C19.7044392,22.9010946 20.3178808,23.1644176 20.9668874,23.2563797 L20.9668874,23.2563797 L20.9668874,20.638489 C19.5761589,20.2800629 18.1081436,19.7813927 18.1081436,17.9894084 C18.1915873,16.4700968 19.4587438,15.2951138 20.9668874,15.3403279 L20.9668874,15.3403279 L20.9668874,14.5300528 C20.9746378,14.2293313 21.2234478,13.9909163 21.5216577,14.0002659 L21.5216577,14.0002659 Z M22.0794702,20.9346086 L22.0794702,23.2563797 C22.9911941,23.1161356 23.3466267,22.5863487 23.3465542,22.0721202 C23.3465542,21.5578916 22.8057637,21.1527905 22.0794702,20.9346086 L22.0794702,20.9346086 Z M20.9668874,16.7739591 C20.2251656,16.8518969 19.746161,17.2726294 19.746161,17.880354 C19.746161,18.4880787 20.2560948,18.6750709 20.9668874,18.8776214 L20.9668874,18.8776214 Z M33.0535903,6.4285346 L8.94640974,6.4285346 C8.25191023,6.4285346 7.6783637,7.0677052 7.61329075,7.88120647 L7.60714286,8.03566741 L7.60714286,14.464274 C7.60714286,15.2976799 8.13978086,15.9859411 8.81769329,16.0640293 L8.94640974,16.0714068 L11.6249435,16.0714068 L11.6249435,12.8570658 L10.2856766,12.8570658 C9.54638975,12.8570658 8.94640974,12.1370842 8.94640974,11.249933 C8.94640974,10.4149672 9.47787992,9.72808239 10.1567541,9.65016156 L10.2856766,9.64280022 L31.7143234,9.64280022 C32.4549286,9.64280022 33.0535275,10.3627819 33.0535275,11.249933 C33.0535275,12.0848988 32.5232251,12.7717837 31.8433892,12.8497045 L31.7142606,12.8570658 L30.3749937,12.8570658 L30.3749937,16.0714068 L33.0535903,16.0714068 C33.7493897,16.0714068 34.3217892,15.4322362 34.3867227,14.6187349 L34.3928571,14.464274 L34.3928571,8.03566741 C34.3928571,7.15017362 33.7928771,6.4285346 33.0535903,6.4285346 Z" id="Combined-Shape" fill="#000000" fill-rule="nonzero"></path>
        </g>
    </g>
</svg>